<svg xmlns="http://www.w3.org/2000/svg" viewBox="0 0 1328 609.13"><defs><style>.cls-1{fill:#fff;}</style></defs><title>Cloud</title><g id="Layer_2" data-name="Layer 2"><path class="cls-1" d="M1263,337.28c0-27.77-17.83-51.62-49.39-58.46-3-23.87-21.94-47.06-50.2-58-25-9.69-51.15-7.34-69.51,4.19A117.76,117.76,0,1,0,868,158.61a117.8,117.8,0,0,0-105.09,7.74,117.72,117.72,0,0,0-165.86-24.3A117.76,117.76,0,0,0,380,122.23a117.79,117.79,0,0,0-120.62,38.23,80.36,80.36,0,0,0-106.5,90.11,98.33,98.33,0,1,0,39.51,192.17A80.32,80.32,0,0,0,316.13,433c22.16,43.16,74.55,73.5,135.67,73.5,54,0,101.25-23.73,126.77-59.07a92.7,92.7,0,0,0,118.09-6.57c17,33.61,57.69,57.29,105.22,57.29,29.16,0,55.75-8.92,75.87-23.56a80.36,80.36,0,0,0,129.48,5.53,80.41,80.41,0,0,0,97.18-29,63.8,63.8,0,0,0,37.35,11.63c31.54,0,57.12-21.35,57.12-47.68a40.86,40.86,0,0,0-4.35-18.28C1235.35,396.79,1263,370.42,1263,337.28Z"/></g></svg>