<svg xmlns="http://www.w3.org/2000/svg" viewBox="0 0 2100 507.76"><defs><style>.cls-1{fill:#382127;}.cls-2{fill:#ee7f9a;}.cls-3,.cls-5{fill:#fff;}.cls-4{fill:#ffca1c;}.cls-5{fill-rule:evenodd;}</style></defs><title>Footer</title><g id="Layer_3" data-name="Layer 3"><path class="cls-1" d="M52.34,69.26V433.62c0,10.29,10.3,18.71,22.88,18.71H1999.94c12.58,0,22.88-8.42,22.88-18.71V69.26Z"/><path class="cls-2" d="M864.21,210.45a12.66,12.66,0,0,1-12.31-9.89c-.34,0-.68,0-1,0a12.64,12.64,0,0,1-8.18-3,12.72,12.72,0,0,1-16.33,0,12.87,12.87,0,0,1-8.15,3,11.26,11.26,0,0,1-1.53-.1,9.76,9.76,0,0,1-1.4-.24,12.88,12.88,0,0,1-3.41-1.4,12.58,12.58,0,0,1-10.58,1,21.72,21.72,0,0,1-5.52.71,22,22,0,0,1-11.35-3.14,12.58,12.58,0,0,1-8.34,3.14,12.75,12.75,0,0,1-12.74-12.74l.08-25.67-.4-.3a8.82,8.82,0,0,1,2.86-15.56l.24-.07.08-.24a8.82,8.82,0,0,1,15.68-2.09l.14.21h.25a8.83,8.83,0,0,1,8.44,11.07,21.37,21.37,0,0,1,10.56.11,12.57,12.57,0,0,1,10.57,1,12.55,12.55,0,0,1,6.37-1.74,12.89,12.89,0,0,1,3.59.51,20.52,20.52,0,0,1,4.52-.51,21.07,21.07,0,0,1,8.2,1.64,21.18,21.18,0,0,1,8.24-1.64,20.73,20.73,0,0,1,12.23,4,12.52,12.52,0,0,1,9.2-4,13.14,13.14,0,0,1,4.35.73,22.54,22.54,0,0,1,5.65-.73,22,22,0,0,1,12.33,3.78,12.59,12.59,0,0,1,8.92-3.73,12.81,12.81,0,0,1,4.58.84,20.53,20.53,0,0,1,5.78-.84H906a12.46,12.46,0,0,1,7.13,2.26A22.3,22.3,0,0,1,923,154.6a22.76,22.76,0,0,1,9.06,1.88,12.84,12.84,0,0,1,12.84-12.35,12.62,12.62,0,0,1,9,3.81,12.73,12.73,0,0,1,21.62,6.73,11.72,11.72,0,0,1,1.22-.06,12.64,12.64,0,0,1,8.18,2.93,12.69,12.69,0,0,1,16.93.65,21.72,21.72,0,0,1,12-3.57,21.3,21.3,0,0,1,5.49.72,12.48,12.48,0,0,1,4.2-.72,12.3,12.3,0,0,1,5.55,1.34,12.16,12.16,0,0,1,4.8-1,12.62,12.62,0,0,1,10.75,6.14,12.56,12.56,0,0,1,4.13-.69,12.79,12.79,0,0,1,4.17.69,12.59,12.59,0,0,1,10.78-6.13,12.4,12.4,0,0,1,5,1.06,12.74,12.74,0,0,1,2.89,1.79,22.45,22.45,0,0,1,24.74,1.05l.4-.32.38-.27a21.19,21.19,0,0,1,12-3.68,22.55,22.55,0,0,1,13.06,4.34,21.64,21.64,0,0,1,25.14-.62,12.55,12.55,0,0,1,8.88-3.72,12.9,12.9,0,0,1,3.59.51,20.56,20.56,0,0,1,4.52-.51,21.06,21.06,0,0,1,8.2,1.64,21.16,21.16,0,0,1,8.24-1.64,20.75,20.75,0,0,1,14.47,5.93A22.46,22.46,0,0,1,1233,176.08c0,.19,0,.39,0,.59v.26a11.34,11.34,0,0,1-.26,2.52,12.09,12.09,0,0,1-2.31,5.13,12.29,12.29,0,0,1,0,1.57,12,12,0,0,1-3.92,8.4,23.08,23.08,0,0,1-16.13,6.06,22.24,22.24,0,0,1-12.38-3.87,12.63,12.63,0,0,1-17.23.9,12.72,12.72,0,0,1-16.33,0,12.88,12.88,0,0,1-8.15,3,11.26,11.26,0,0,1-1.53-.1,9.66,9.66,0,0,1-1.41-.25,12.84,12.84,0,0,1-5.87-3.28,21.66,21.66,0,0,1-25.26-.57l-.31.23-.14.1a21.74,21.74,0,0,1-12.46,3.87h-.13a24.1,24.1,0,0,1-12.73-3.9,23.46,23.46,0,0,1-13.37,3.9,22.43,22.43,0,0,1-16.48-7.39,11.59,11.59,0,0,1-.91,1.67L1065,196l-.07,0c-.33.4-.62.69-.79.86s-.43.42-.66.61a9.84,9.84,0,0,1-1.2,1,10.79,10.79,0,0,1-1.51.91,12.49,12.49,0,0,1-3.51,1.13,11.47,11.47,0,0,1-2.17.18,11.79,11.79,0,0,1-1.89-.14,9.88,9.88,0,0,1-1.85-.43l-.65-.22a10.71,10.71,0,0,1-1.85-.86,10.65,10.65,0,0,1-2,.92,9.69,9.69,0,0,1-1,.29,9.41,9.41,0,0,1-1,.23,13,13,0,0,1-4,.1,9.86,9.86,0,0,1-2.25-.51,9.65,9.65,0,0,1-1.09-.42,10.93,10.93,0,0,1-3-1.91,9.92,9.92,0,0,1-1.44-1.36,12.6,12.6,0,0,1-13.65,3.59,21.76,21.76,0,0,1-5.52.71,22,22,0,0,1-10.77-2.81,22.17,22.17,0,0,1-29.3,9.45,12.47,12.47,0,0,1-6.37-6.74,12,12,0,0,1-1.53.1,15.63,15.63,0,0,1-9.6-3.3,12.76,12.76,0,0,1-8.51,3.3A15.72,15.72,0,0,1,937,196.25a23.33,23.33,0,0,1-14,4.35,22.49,22.49,0,0,1-16.13-7,12.82,12.82,0,0,1-11.38,7,12.56,12.56,0,0,1-8.94-3.76,22.26,22.26,0,0,1-9.7,3.56A12.88,12.88,0,0,1,864.21,210.45Z"/><path class="cls-3" d="M774.57,141.41a7.44,7.44,0,0,1,6.18,3.29l.54.81h1a7.44,7.44,0,0,1,5.8,12,20.4,20.4,0,0,1,7.72-1.53,19.92,19.92,0,0,1,5.55.79,11.2,11.2,0,0,1,10.51,1.2,11.2,11.2,0,0,1,6.37-2,11.51,11.51,0,0,1,3.55.56,19.14,19.14,0,0,1,4.57-.56,19.82,19.82,0,0,1,8.2,1.76,19.91,19.91,0,0,1,8.24-1.76,19.27,19.27,0,0,1,12.43,4.54,11.26,11.26,0,0,1,9-4.54,11.79,11.79,0,0,1,4.28.8,21.28,21.28,0,0,1,5.72-.8,20.76,20.76,0,0,1,12.53,4.23,11.26,11.26,0,0,1,8.72-4.18A11.48,11.48,0,0,1,900,157a19.21,19.21,0,0,1,5.85-.92H906a11.23,11.23,0,0,1,7,2.5A20.8,20.8,0,0,1,923,156a21.14,21.14,0,0,1,10.22,2.6l.21-.19v-1.47A11.41,11.41,0,0,1,954,150a11.37,11.37,0,0,1,20.42,6.23,11.3,11.3,0,0,1,10.6,3.15,11.19,11.19,0,0,1,8.15-3.43,11.31,11.31,0,0,1,8.6,4,20.39,20.39,0,0,1,12.16-4,19.91,19.91,0,0,1,5.55.79,11,11,0,0,1,9.67.73c.13-.06.24-.15.38-.21a10.8,10.8,0,0,1,4.43-.94,11.27,11.27,0,0,1,10.12,6.5,11.28,11.28,0,0,1,4.76-1.05,11.44,11.44,0,0,1,4.81,1,11.18,11.18,0,0,1,10.14-6.49h0a11,11,0,0,1,4.48.95,11.58,11.58,0,0,1,3.31,2.24,21.06,21.06,0,0,1,24.93,1.11c.38-.34.76-.68,1.18-1l.33-.24a19.82,19.82,0,0,1,11.27-3.43,21.64,21.64,0,0,1,12.66,4.36c.15.1.27.23.42.34a20.35,20.35,0,0,1,13.07-4.7,20.11,20.11,0,0,1,12.25,4.18,11.22,11.22,0,0,1,8.69-4.18,11.51,11.51,0,0,1,3.55.56,19.14,19.14,0,0,1,4.57-.56,19.82,19.82,0,0,1,8.2,1.76,19.91,19.91,0,0,1,8.24-1.76,19.31,19.31,0,0,1,14.44,6.51,21.08,21.08,0,0,1,36.3,13.66q0,.25,0,.5v.26a10,10,0,0,1-.23,2.22,10.7,10.7,0,0,1-2.4,5,11,11,0,0,1,.09,1.94,10.61,10.61,0,0,1-3.47,7.44,21.71,21.71,0,0,1-15.2,5.7,21,21,0,0,1-12.59-4.34,11.27,11.27,0,0,1-17,.87,11.34,11.34,0,0,1-16.32,0,11.51,11.51,0,0,1-8.16,3.46,9.93,9.93,0,0,1-1.35-.09,8.52,8.52,0,0,1-1.25-.22,11.56,11.56,0,0,1-6-3.77,20.1,20.1,0,0,1-12.31,4.24,20.36,20.36,0,0,1-13.15-4.75c-.35.3-.71.61-1.09.88l-.13.09a20.36,20.36,0,0,1-11.67,3.62h-.11a22.88,22.88,0,0,1-12.78-4.19,21.93,21.93,0,0,1-13.35,4.19,21.29,21.29,0,0,1-16.85-8.63l-.75,1.76-.11.24a10.37,10.37,0,0,1-.83,1.53h0q-.17.26-.36.51a10.52,10.52,0,0,1-1,1.2q-.29.29-.6.55a8.53,8.53,0,0,1-1.06.87,9.5,9.5,0,0,1-1.34.81,8.55,8.55,0,0,1-2.17.8,8.88,8.88,0,0,1-.94.2,10.29,10.29,0,0,1-2,.16,10.47,10.47,0,0,1-1.67-.12,8.64,8.64,0,0,1-1.62-.38l-.6-.2a9.51,9.51,0,0,1-2.34-1.21,9.32,9.32,0,0,1-2.45,1.26,8.49,8.49,0,0,1-.85.25,9,9,0,0,1-.9.21,11.72,11.72,0,0,1-3.6.09,8.7,8.7,0,0,1-2-.45,8.55,8.55,0,0,1-1-.37,9.6,9.6,0,0,1-2.7-1.71,8.53,8.53,0,0,1-2-2.08l-.25-.36h0l-.1-.15a11.29,11.29,0,0,1-9.5,5.22,11.16,11.16,0,0,1-4.1-.78,20.32,20.32,0,0,1-5.58.78,20.57,20.57,0,0,1-11.33-3.38A20.81,20.81,0,0,1,974.43,206a11.06,11.06,0,0,1-6.05-7.06,11.37,11.37,0,0,1-2.46.28,14.27,14.27,0,0,1-9.68-3.79,11.35,11.35,0,0,1-8.43,3.79,14.3,14.3,0,0,1-10.69-4.82A21.81,21.81,0,0,1,923,199.23,21.28,21.28,0,0,1,906.39,191a11.38,11.38,0,0,1-10.94,8.26,11.24,11.24,0,0,1-8.73-4.21,20.9,20.9,0,0,1-11.09,4.11,11.48,11.48,0,0,1-11.43,9.94A11.3,11.3,0,0,1,853,199a11.25,11.25,0,0,1-10.33-3.26,11.34,11.34,0,0,1-16.32,0,11.51,11.51,0,0,1-8.16,3.46,9.94,9.94,0,0,1-1.35-.09,8.52,8.52,0,0,1-1.25-.22,11.63,11.63,0,0,1-3.75-1.7,11.21,11.21,0,0,1-10.51,1.23,20.33,20.33,0,0,1-5.58.78,20.57,20.57,0,0,1-11.52-3.51,11.34,11.34,0,0,1-19.53-7.86l.09-26.36-1-.72a7.44,7.44,0,0,1,2.41-13.13l.94-.27.31-.93a7.44,7.44,0,0,1,7.05-5.06m0-2.76a10.26,10.26,0,0,0-1.35.09,10.13,10.13,0,0,0-8.15,6.41,10.2,10.2,0,0,0-3,17.73l-.08,25A14.13,14.13,0,0,0,776.09,202a13.93,13.93,0,0,0,8.48-2.86A23.36,23.36,0,0,0,795.78,202a23.12,23.12,0,0,0,5.46-.65,14,14,0,0,0,10.63-.9,14.13,14.13,0,0,0,3.07,1.17,11.29,11.29,0,0,0,1.6.28,12.69,12.69,0,0,0,1.66.11,14.22,14.22,0,0,0,8.14-2.61,14.11,14.11,0,0,0,16.34,0,14,14,0,0,0,8.15,2.6,14,14,0,0,0,13.35,9.84,14.28,14.28,0,0,0,13.71-10.18,23.62,23.62,0,0,0,8.43-3.07,13.9,13.9,0,0,0,9.1,3.41,14.19,14.19,0,0,0,11.68-6.19A23.78,23.78,0,0,0,923,202a24.83,24.83,0,0,0,13.92-4,17.08,17.08,0,0,0,10.94,4,14.1,14.1,0,0,0,8.57-2.94,17,17,0,0,0,9.55,2.94l.67,0a13.86,13.86,0,0,0,6.66,6.53,23.54,23.54,0,0,0,30.4-8.88,23.36,23.36,0,0,0,10.24,2.36,23.12,23.12,0,0,0,5.46-.65,14,14,0,0,0,13.71-3.06l.55.46a12.32,12.32,0,0,0,3.36,2.11,13.65,13.65,0,0,0,3.73,1,13.43,13.43,0,0,0,1.87.12,13.28,13.28,0,0,0,2.59-.24c.34-.06.71-.15,1.08-.25s.7-.19,1-.31a11.92,11.92,0,0,0,1.56-.65,12.28,12.28,0,0,0,1.4.59l.71.24a11.43,11.43,0,0,0,2.05.47,13.2,13.2,0,0,0,2.07.15,13,13,0,0,0,2.42-.2c.39-.06.77-.14,1.14-.24a11.31,11.31,0,0,0,2.77-1,12.21,12.21,0,0,0,1.67-1,11.29,11.29,0,0,0,1.31-1.06c.24-.2.47-.41.69-.63l.25.17,1.55-2.35.09-.14A23.72,23.72,0,0,0,1083.1,202a25,25,0,0,0,13.42-3.65,25.27,25.27,0,0,0,12.7,3.65h.14a23.11,23.11,0,0,0,12.92-3.89,23,23,0,0,0,25.13.61,14.22,14.22,0,0,0,5.68,2.88,11.36,11.36,0,0,0,1.6.28,12.68,12.68,0,0,0,1.66.11,14.22,14.22,0,0,0,8.14-2.61,14.11,14.11,0,0,0,16.34,0,14,14,0,0,0,17.4-.9,23.54,23.54,0,0,0,12.19,3.5,24.44,24.44,0,0,0,17.09-6.43,13.33,13.33,0,0,0,4.36-9.35c0-.4,0-.81,0-1.22a13.54,13.54,0,0,0,2.26-5.28,12.66,12.66,0,0,0,.28-2.77v-.26q0-.33,0-.67a23.8,23.8,0,0,0-23.89-22.77,23.55,23.55,0,0,0-15.11,5.46,22.1,22.1,0,0,0-14.5-5.46,22.57,22.57,0,0,0-8.24,1.53,22.44,22.44,0,0,0-8.2-1.53,21.88,21.88,0,0,0-4.48.47,14.28,14.28,0,0,0-3.63-.47,13.87,13.87,0,0,0-9,3.37,23,23,0,0,0-25,.68,23.73,23.73,0,0,0-13-4,22.56,22.56,0,0,0-12.82,3.92l0,0a23.84,23.84,0,0,0-24.6-1,14,14,0,0,0-2.43-1.39,13.77,13.77,0,0,0-5.6-1.18,14,14,0,0,0-11.37,5.9,14.24,14.24,0,0,0-3.58-.45,14,14,0,0,0-3.54.45,14,14,0,0,0-11.34-5.9,13.54,13.54,0,0,0-4.75.85,13.57,13.57,0,0,0-5.6-1.22,13.85,13.85,0,0,0-4.25.66,22.66,22.66,0,0,0-5.44-.66,23.08,23.08,0,0,0-11.82,3.24,14.08,14.08,0,0,0-17.08-.67,14.06,14.06,0,0,0-8.18-2.56h-.13a14.1,14.1,0,0,0-22.7-7.16,14,14,0,0,0-9-3.31,14.23,14.23,0,0,0-14,11.79,24.17,24.17,0,0,0-7.88-1.32,23.67,23.67,0,0,0-9.74,2.11,13.78,13.78,0,0,0-7.25-2.06h-.18a21.92,21.92,0,0,0-5.76.77,14.19,14.19,0,0,0-4.64-.77,13.93,13.93,0,0,0-9.07,3.37,23.32,23.32,0,0,0-12.18-3.42,23.85,23.85,0,0,0-5.6.68,14.54,14.54,0,0,0-4.4-.68,13.86,13.86,0,0,0-9.35,3.61,22.1,22.1,0,0,0-12.08-3.61,22.57,22.57,0,0,0-8.24,1.53,22.44,22.44,0,0,0-8.2-1.53,21.88,21.88,0,0,0-4.48.47,14.28,14.28,0,0,0-3.63-.47,13.91,13.91,0,0,0-6.37,1.54,14,14,0,0,0-10.62-.88,22.71,22.71,0,0,0-8.85-.41,10.22,10.22,0,0,0-9.61-10.7,10.19,10.19,0,0,0-8.2-4.13Z"/><path class="cls-3" d="M778.92,167.45v20.42a2.78,2.78,0,0,1-2.83,2.83,2.82,2.82,0,0,1-2.83-2.83V167.45a2.8,2.8,0,0,1,2.83-2.88A2.76,2.76,0,0,1,778.92,167.45Z"/><path class="cls-3" d="M808.24,177.66v10.26a2.79,2.79,0,0,1-2.77,2.78,2.85,2.85,0,0,1-2.72-2.25,11.88,11.88,0,0,1-7,2.25,12.17,12.17,0,0,1-8.9-3.82,13.4,13.4,0,0,1-3.56-9.21,13.21,13.21,0,0,1,3.56-9.21,12.05,12.05,0,0,1,8.9-3.93,11.93,11.93,0,0,1,7,2.3,2.84,2.84,0,0,1,2.72-2.3,2.8,2.8,0,0,1,2.77,2.83Zm-5.55,0a7.69,7.69,0,0,0-2-5.39,6.47,6.47,0,0,0-4.87-2.15,6.31,6.31,0,0,0-4.87,2.15,7.66,7.66,0,0,0-2,5.39,7.86,7.86,0,0,0,2,5.39,6.59,6.59,0,0,0,4.87,2,6.77,6.77,0,0,0,4.87-2A7.89,7.89,0,0,0,802.69,177.66Z"/><path class="cls-3" d="M837.33,175.35v12.56a2.79,2.79,0,0,1-2.78,2.78,2.87,2.87,0,0,1-2.83-2.78V175.35a5.34,5.34,0,0,0-10.68.16v12.41c0,.1-.05.26-.05.37v.16c-.05.11-.05.21-.16.31V189a3.06,3.06,0,0,1-2.62,1.68c-.21,0-.37-.05-.52-.05a2.85,2.85,0,0,1-2.25-2.72V167.34a2.77,2.77,0,0,1,2.77-2.83,2.66,2.66,0,0,1,2.51,1.57,11,11,0,0,1,5.6-1.57,10.86,10.86,0,0,1,8.22,3.61,10.79,10.79,0,0,1,8.22-3.61,10.94,10.94,0,0,1,10.89,11v12.41a2.79,2.79,0,0,1-2.78,2.78,2.84,2.84,0,0,1-2.83-2.78V175.51a5.36,5.36,0,0,0-5.29-5.39A5.43,5.43,0,0,0,837.33,175.35Z"/><path class="cls-3" d="M861.43,197.71V167.29a2.79,2.79,0,0,1,2.77-2.78,2.87,2.87,0,0,1,2.88,2.15,13.29,13.29,0,0,1,7.12-2.15c7,0,12.67,6,12.67,13.14a12.85,12.85,0,0,1-12.67,13,12.11,12.11,0,0,1-7-2.15v9.21a3,3,0,0,1-3,2.83A2.87,2.87,0,0,1,861.43,197.71Zm5.76-20.05a7,7,0,0,0,2,5.23,6.48,6.48,0,0,0,5,2.2,6.69,6.69,0,0,0,4.92-2.2,7.63,7.63,0,0,0,2-5.23,8.08,8.08,0,0,0-2-5.29,6.84,6.84,0,0,0-4.92-2.15,6.62,6.62,0,0,0-5,2.15A7.35,7.35,0,0,0,867.19,177.66Z"/><path class="cls-3" d="M908.81,167.29a2.79,2.79,0,0,1-2.77,2.78,5,5,0,0,0-3.14,1,7.87,7.87,0,0,0-2.41,2.51,16.08,16.08,0,0,0-2.15,4.4v9.95a2.85,2.85,0,0,1-2.88,2.78,2.79,2.79,0,0,1-2.78-2.78V167.29a2.75,2.75,0,0,1,2.78-2.72,2.81,2.81,0,0,1,2.88,2.72v.37a7,7,0,0,1,1.1-1,11.5,11.5,0,0,1,6.6-2A2.72,2.72,0,0,1,908.81,167.29Z"/><path class="cls-3" d="M910.26,177.61A13,13,0,0,1,923,164.52a12.52,12.52,0,0,1,12.62,12.15v.26a1.43,1.43,0,0,1-.05.47,2.52,2.52,0,0,1-2.72,2.09H916.23a6.86,6.86,0,0,0,1.78,3.45,8.1,8.1,0,0,0,5,2.36,8.56,8.56,0,0,0,5.44-1.31,3,3,0,0,1,3.93-.16,2.39,2.39,0,0,1,0,3.4,13.23,13.23,0,0,1-9.37,3.45A13,13,0,0,1,910.26,177.61ZM916,175h14.82c-.52-2.09-3.19-5.18-7.75-5.55A7.31,7.31,0,0,0,916,175Z"/><path class="cls-3" d="M952,167.4a3,3,0,0,1-2.93,2.88h-1.31v14.61a2.88,2.88,0,0,1,2.88,2.93,2.84,2.84,0,0,1-2.88,2.88,5.83,5.83,0,0,1-5.81-5.81V170.28h-1.52a2.87,2.87,0,0,1-2.88-2.88,2.84,2.84,0,0,1,2.88-2.88H942v-7.59a2.88,2.88,0,0,1,2.93-2.88,2.84,2.84,0,0,1,2.88,2.88v7.59h1.31A2.92,2.92,0,0,1,952,167.4Z"/><path class="cls-3" d="M970.16,167.4a3,3,0,0,1-2.93,2.88h-1.31v14.61a2.88,2.88,0,0,1,2.88,2.93,2.84,2.84,0,0,1-2.88,2.88,5.83,5.83,0,0,1-5.81-5.81V170.28h-1.52a2.87,2.87,0,0,1-2.88-2.88,2.84,2.84,0,0,1,2.88-2.88h1.52v-7.59A2.88,2.88,0,0,1,963,154a2.84,2.84,0,0,1,2.88,2.88v7.59h1.31A2.92,2.92,0,0,1,970.16,167.4Z"/><path class="cls-3" d="M996,167.29v19.79a12.37,12.37,0,0,1-17.9,11.2,2.74,2.74,0,0,1-1.36-3.72,2.88,2.88,0,0,1,3.72-1.15,7,7,0,0,0,3,.73,6.92,6.92,0,0,0,6.54-4.76,10.17,10.17,0,0,1-5,1.26,11,11,0,0,1-10.94-11V167.29a2.78,2.78,0,0,1,2.72-2.78,2.7,2.7,0,0,1,2.77,2.78v12.35a5.42,5.42,0,0,0,10.84,0V167.29a2.68,2.68,0,0,1,2.72-2.78A2.8,2.8,0,0,1,996,167.29Z"/><path class="cls-3" d="M1026.35,177.66v10.26a2.79,2.79,0,0,1-2.77,2.78,2.85,2.85,0,0,1-2.72-2.25,11.88,11.88,0,0,1-7,2.25,12.17,12.17,0,0,1-8.9-3.82,13.4,13.4,0,0,1-3.56-9.21,13.21,13.21,0,0,1,3.56-9.21,12.05,12.05,0,0,1,8.9-3.93,11.93,11.93,0,0,1,7,2.3,2.84,2.84,0,0,1,2.72-2.3,2.8,2.8,0,0,1,2.77,2.83Zm-5.55,0a7.69,7.69,0,0,0-2-5.39,6.47,6.47,0,0,0-4.87-2.15,6.31,6.31,0,0,0-4.87,2.15,7.66,7.66,0,0,0-2,5.39,7.86,7.86,0,0,0,2,5.39,6.59,6.59,0,0,0,4.87,2,6.77,6.77,0,0,0,4.87-2A7.89,7.89,0,0,0,1020.8,177.66Z"/><path class="cls-3" d="M1066.3,168.7,1057.66,189a3.23,3.23,0,0,1-.21.42.05.05,0,0,1-.05.05,1.41,1.41,0,0,1-.26.31.16.16,0,0,1-.1.05,1.39,1.39,0,0,1-.31.26c0,.05-.05.05-.05.11a1.38,1.38,0,0,1-.47.26.05.05,0,0,0-.05.05,1.65,1.65,0,0,0-.42.11h-.1a1.62,1.62,0,0,1-.52.05,1.46,1.46,0,0,1-.47-.05h-.1a.76.76,0,0,0-.37-.11l-.05-.05H1054a1.24,1.24,0,0,1-.47-.31v-.05c-.16-.05-.21-.16-.31-.26s-.11,0-.11-.05a1.44,1.44,0,0,1-.26-.31.05.05,0,0,1-.05-.05,3.1,3.1,0,0,1-.21-.42l-3.82-9.06L1045.1,189c-.05.1-.16.26-.26.42v.05l-.31.31a.05.05,0,0,1-.05.05l-.31.31a1.81,1.81,0,0,1-.47.31h-.11a.05.05,0,0,0-.05.05.56.56,0,0,0-.31.11h-.11a2,2,0,0,1-.52.05,1.63,1.63,0,0,1-.52-.05h-.16a.74.74,0,0,0-.31-.11c-.05-.05-.05-.05-.11-.05a1,1,0,0,1-.47-.31c-.05,0-.05,0-.05-.05a2,2,0,0,0-.31-.26l-.1-.05c-.05-.11-.16-.21-.21-.31s-.05,0-.05-.05a2.91,2.91,0,0,0-.26-.42l-8.59-20.31a2.71,2.71,0,0,1,1.52-3.61,2.6,2.6,0,0,1,3.45,1.57l6.18,14.08,3.66-8.74a2.8,2.8,0,0,1,2.57-1.68,2.69,2.69,0,0,1,2.56,1.68l3.72,8.74,6.18-14.08a2.62,2.62,0,0,1,3.51-1.57A2.75,2.75,0,0,1,1066.3,168.7Z"/><path class="cls-3" d="M1070.41,177.61a13,13,0,0,1,12.77-13.09,12.52,12.52,0,0,1,12.62,12.15v.26a1.45,1.45,0,0,1-.05.47,2.52,2.52,0,0,1-2.72,2.09h-16.65a6.86,6.86,0,0,0,1.78,3.45,8.09,8.09,0,0,0,5,2.36,8.57,8.57,0,0,0,5.44-1.31,3,3,0,0,1,3.93-.16,2.39,2.39,0,0,1,0,3.4,13.23,13.23,0,0,1-9.37,3.45A13,13,0,0,1,1070.41,177.61Zm5.71-2.57h14.81c-.52-2.09-3.19-5.18-7.75-5.55A7.32,7.32,0,0,0,1076.11,175Z"/><path class="cls-3" d="M1099.67,183.21a2.72,2.72,0,0,1,3.93-.42,9.59,9.59,0,0,0,5.76,2.3,7,7,0,0,0,3.56-1,2.14,2.14,0,0,0,.94-1.57.78.78,0,0,0-.16-.52c-.05-.16-.26-.37-.68-.63a12.11,12.11,0,0,0-4.19-1.47h-.05a20.16,20.16,0,0,1-4.55-1.36,8.75,8.75,0,0,1-3.61-3,6.35,6.35,0,0,1-.89-3.3,7.35,7.35,0,0,1,3.09-5.76,11.26,11.26,0,0,1,6.44-1.94,13.46,13.46,0,0,1,7.85,2.88,2.89,2.89,0,0,1,.84,3.87,2.77,2.77,0,0,1-3.87.73c-1.68-1.1-3.14-1.94-4.82-1.94a5.33,5.33,0,0,0-3.14.94,1.59,1.59,0,0,0-.84,1.2.56.56,0,0,0,.11.42,1.41,1.41,0,0,0,.58.52,10.7,10.7,0,0,0,3.82,1.26l.05.05h.05a18.84,18.84,0,0,1,4.87,1.52,8.13,8.13,0,0,1,3.72,3.09,6.78,6.78,0,0,1,1,3.45,7.55,7.55,0,0,1-3.3,6.07,11.91,11.91,0,0,1-6.81,2.09,15.2,15.2,0,0,1-9.32-3.61A2.79,2.79,0,0,1,1099.67,183.21Z"/><path class="cls-3" d="M1126.39,186.87a13.07,13.07,0,0,1-3.61-9.21,13.51,13.51,0,0,1,3.61-9.16,12.23,12.23,0,0,1,9-4,11.57,11.57,0,0,1,8.74,4,13.08,13.08,0,0,1,3.66,9.16,12.67,12.67,0,0,1-3.66,9.21,11.57,11.57,0,0,1-8.74,4A12.22,12.22,0,0,1,1126.39,186.87Zm2.09-9.21a8.47,8.47,0,0,0,1.88,5.55,7.08,7.08,0,0,0,5,1.94,6.85,6.85,0,0,0,4.82-1.94,8,8,0,0,0,2-5.55,7.87,7.87,0,0,0-2-5.44,7.39,7.39,0,0,0-4.82-2,7.61,7.61,0,0,0-5,2A8.28,8.28,0,0,0,1128.49,177.66Z"/><path class="cls-3" d="M1175.45,175.35v12.56a2.79,2.79,0,0,1-2.78,2.78,2.87,2.87,0,0,1-2.83-2.78V175.35a5.34,5.34,0,0,0-10.68.16v12.41c0,.1-.05.26-.05.37v.16c-.05.11-.05.21-.16.31V189a3.06,3.06,0,0,1-2.62,1.68c-.21,0-.37-.05-.52-.05a2.85,2.85,0,0,1-2.25-2.72V167.34a2.77,2.77,0,0,1,2.77-2.83,2.66,2.66,0,0,1,2.51,1.57,11,11,0,0,1,5.6-1.57,10.86,10.86,0,0,1,8.22,3.61,10.79,10.79,0,0,1,8.22-3.61,10.94,10.94,0,0,1,10.89,11v12.41a2.79,2.79,0,0,1-2.78,2.78,2.84,2.84,0,0,1-2.83-2.78V175.51a5.36,5.36,0,0,0-5.29-5.39A5.43,5.43,0,0,0,1175.45,175.35Z"/><path class="cls-3" d="M1197.72,177.61a13,13,0,0,1,12.77-13.09,12.52,12.52,0,0,1,12.62,12.15v.26a1.45,1.45,0,0,1-.05.47,2.52,2.52,0,0,1-2.72,2.09h-16.65a6.86,6.86,0,0,0,1.78,3.45,8.09,8.09,0,0,0,5,2.36,8.57,8.57,0,0,0,5.44-1.31,3,3,0,0,1,3.93-.16,2.39,2.39,0,0,1,0,3.4,13.23,13.23,0,0,1-9.37,3.45A13,13,0,0,1,1197.72,177.61Zm5.71-2.57h14.81c-.52-2.09-3.19-5.18-7.75-5.55A7.32,7.32,0,0,0,1203.43,175Z"/><path class="cls-4" d="M782.68,152.69a1,1,0,0,0-.78-1.63l-3.81,0a.7.7,0,0,1-.58-.31l-2.13-3.17a1,1,0,0,0-1.79.24l-1.22,3.61a.7.7,0,0,1-.47.45l-3.67,1a1,1,0,0,0-.33,1.77l3.06,2.28a.7.7,0,0,1,.28.59l-.14,3.81a1,1,0,0,0,1.59.86l3.11-2.21a.7.7,0,0,1,.65-.09l3.58,1.31a1,1,0,0,0,1.31-1.24l-1.14-3.64a.7.7,0,0,1,.12-.64Z"/><circle class="cls-2" cx="900.74" cy="294.05" r="28"/><circle class="cls-2" cx="985.75" cy="294.05" r="28"/><circle class="cls-2" cx="1070.41" cy="294.05" r="28"/><path class="cls-5" d="M881.73,306.08V281.81c.26,0,.47,0,.68,0,4,0,8.08-.05,12.11,0a9.22,9.22,0,0,1,3.3.72,5.37,5.37,0,0,1,3.29,4.86,8,8,0,0,1-.06,2,3.89,3.89,0,0,1-2.83,3.23c-.14,0-.27.11-.56.23l.82.13a4.07,4.07,0,0,1,3.14,3,8.86,8.86,0,0,1,.1,5.19c-.81,2.86-3,4.17-5.71,4.69a9.64,9.64,0,0,1-1.77.14c-3.91,0-7.81,0-11.72,0Zm5.46-4.32a1.2,1.2,0,0,0,.33.11c2.28,0,4.56,0,6.83-.07a2.55,2.55,0,0,0,2.58-2.56c.36-2.58-.92-4-3.5-4H888c-.28,0-.55,0-.86.07Zm0-10.27c.25,0,.42.05.59.05,2.06,0,4.12,0,6.18,0a1.86,1.86,0,0,0,2.07-1.76,5.63,5.63,0,0,0,.1-1c0-1.63-.49-2.86-2.63-2.78-1.81.07-3.64,0-5.45,0-.27,0-.55,0-.85.08Z"/><path class="cls-5" d="M908.33,298.45a3.76,3.76,0,0,0,2.76,4.22c2.57.72,4.61-.15,5.59-2.41h4a5.55,5.55,0,0,1-1.85,4.41,7.74,7.74,0,0,1-3.86,1.72,13,13,0,0,1-6-.24,7.7,7.7,0,0,1-5.69-6.36,10.74,10.74,0,0,1,1.28-7.74,8,8,0,0,1,6.14-3.95,11.07,11.07,0,0,1,4.31.19c3.4.85,5.09,3.24,5.66,6.53.2,1.15.18,2.34.27,3.62Zm0-3.17h8a3.51,3.51,0,0,0-3.45-3.82C910.37,291.38,908.23,293.17,908.29,295.28Z"/><path class="cls-5" d="M907.28,286v-2.74h9.87V286Z"/></g></svg>