<?xml version="1.0" encoding="UTF-8" standalone="no"?>
<svg
   xmlns:dc="http://purl.org/dc/elements/1.1/"
   xmlns:cc="http://creativecommons.org/ns#"
   xmlns:rdf="http://www.w3.org/1999/02/22-rdf-syntax-ns#"
   xmlns:svg="http://www.w3.org/2000/svg"
   xmlns="http://www.w3.org/2000/svg"
   xmlns:sodipodi="http://sodipodi.sourceforge.net/DTD/sodipodi-0.dtd"
   xmlns:inkscape="http://www.inkscape.org/namespaces/inkscape"
   viewBox="0 0 476.36124 73.240035"
   version="1.1"
   id="svg61"
   sodipodi:docname="footer_logo.svg"
   width="476.36124"
   height="73.240036"
   inkscape:version="0.92.1 r15371">
  <metadata
     id="metadata65">
    <rdf:RDF>
      <cc:Work
         rdf:about="">
        <dc:format>image/svg+xml</dc:format>
        <dc:type
           rdf:resource="http://purl.org/dc/dcmitype/StillImage" />
      </cc:Work>
    </rdf:RDF>
  </metadata>
  <sodipodi:namedview
     pagecolor="#ffffff"
     bordercolor="#666666"
     borderopacity="1"
     objecttolerance="10"
     gridtolerance="10"
     guidetolerance="10"
     inkscape:pageopacity="0"
     inkscape:pageshadow="2"
     inkscape:window-width="2605"
     inkscape:window-height="1538"
     id="namedview63"
     showgrid="false"
     inkscape:zoom="0.71788174"
     inkscape:cx="186.13693"
     inkscape:cy="-195.77394"
     inkscape:window-x="719"
     inkscape:window-y="145"
     inkscape:window-maximized="0"
     inkscape:current-layer="svg61" />
  <defs
     id="defs4">
    <style
       id="style2">.cls-1{fill:#382127;}.cls-2{fill:#ee7f9a;}.cls-3,.cls-5{fill:#fff;}.cls-4{fill:#ffca1c;}.cls-5{fill-rule:evenodd;}</style>
  </defs>
  <title
     id="title6">Footer</title>
  <g
     id="g3782"
     transform="translate(-758.04931,-138.6)">
    <path
       class="cls-2"
       d="m 864.21,210.45 a 12.66,12.66 0 0 1 -12.31,-9.89 c -0.34,0 -0.68,0 -1,0 a 12.64,12.64 0 0 1 -8.18,-3 12.72,12.72 0 0 1 -16.33,0 12.87,12.87 0 0 1 -8.15,3 11.26,11.26 0 0 1 -1.53,-0.1 9.76,9.76 0 0 1 -1.4,-0.24 12.88,12.88 0 0 1 -3.41,-1.4 12.58,12.58 0 0 1 -10.58,1 21.72,21.72 0 0 1 -5.52,0.71 22,22 0 0 1 -11.35,-3.14 12.58,12.58 0 0 1 -8.34,3.14 12.75,12.75 0 0 1 -12.74,-12.74 l 0.08,-25.67 -0.4,-0.3 a 8.82,8.82 0 0 1 2.86,-15.56 l 0.24,-0.07 0.08,-0.24 a 8.82,8.82 0 0 1 15.68,-2.09 l 0.14,0.21 h 0.25 a 8.83,8.83 0 0 1 8.44,11.07 21.37,21.37 0 0 1 10.56,0.11 12.57,12.57 0 0 1 10.57,1 12.55,12.55 0 0 1 6.37,-1.74 12.89,12.89 0 0 1 3.59,0.51 20.52,20.52 0 0 1 4.52,-0.51 21.07,21.07 0 0 1 8.2,1.64 21.18,21.18 0 0 1 8.24,-1.64 20.73,20.73 0 0 1 12.23,4 12.52,12.52 0 0 1 9.2,-4 13.14,13.14 0 0 1 4.35,0.73 22.54,22.54 0 0 1 5.65,-0.73 22,22 0 0 1 12.33,3.78 12.59,12.59 0 0 1 8.92,-3.73 12.81,12.81 0 0 1 4.58,0.84 20.53,20.53 0 0 1 5.78,-0.84 H 906 a 12.46,12.46 0 0 1 7.13,2.26 22.3,22.3 0 0 1 9.87,-2.22 22.76,22.76 0 0 1 9.06,1.88 12.84,12.84 0 0 1 12.84,-12.35 12.62,12.62 0 0 1 9,3.81 12.73,12.73 0 0 1 21.62,6.73 11.72,11.72 0 0 1 1.22,-0.06 12.64,12.64 0 0 1 8.18,2.93 12.69,12.69 0 0 1 16.93,0.65 21.72,21.72 0 0 1 12,-3.57 21.3,21.3 0 0 1 5.49,0.72 12.48,12.48 0 0 1 4.2,-0.72 12.3,12.3 0 0 1 5.55,1.34 12.16,12.16 0 0 1 4.8,-1 12.62,12.62 0 0 1 10.75,6.14 12.56,12.56 0 0 1 4.13,-0.69 12.79,12.79 0 0 1 4.17,0.69 12.59,12.59 0 0 1 10.78,-6.13 12.4,12.4 0 0 1 5,1.06 12.74,12.74 0 0 1 2.89,1.79 22.45,22.45 0 0 1 24.74,1.05 l 0.4,-0.32 0.38,-0.27 a 21.19,21.19 0 0 1 12,-3.68 22.55,22.55 0 0 1 13.06,4.34 21.64,21.64 0 0 1 25.14,-0.62 12.55,12.55 0 0 1 8.88,-3.72 12.9,12.9 0 0 1 3.59,0.51 20.56,20.56 0 0 1 4.52,-0.51 21.06,21.06 0 0 1 8.2,1.64 21.16,21.16 0 0 1 8.24,-1.64 20.75,20.75 0 0 1 14.47,5.93 22.46,22.46 0 0 1 37.77,15.55 c 0,0.19 0,0.39 0,0.59 v 0.26 a 11.34,11.34 0 0 1 -0.26,2.52 12.09,12.09 0 0 1 -2.31,5.13 12.29,12.29 0 0 1 0,1.57 12,12 0 0 1 -3.92,8.4 23.08,23.08 0 0 1 -16.13,6.06 22.24,22.24 0 0 1 -12.38,-3.87 12.63,12.63 0 0 1 -17.23,0.9 12.72,12.72 0 0 1 -16.33,0 12.88,12.88 0 0 1 -8.15,3 11.26,11.26 0 0 1 -1.53,-0.1 9.66,9.66 0 0 1 -1.41,-0.25 12.84,12.84 0 0 1 -5.87,-3.28 21.66,21.66 0 0 1 -25.26,-0.57 l -0.31,0.23 -0.14,0.1 a 21.74,21.74 0 0 1 -12.46,3.87 h -0.13 a 24.1,24.1 0 0 1 -12.73,-3.9 23.46,23.46 0 0 1 -13.37,3.9 22.43,22.43 0 0 1 -16.48,-7.39 11.59,11.59 0 0 1 -0.91,1.67 L 1065,196 h -0.07 c -0.33,0.4 -0.62,0.69 -0.79,0.86 -0.17,0.17 -0.43,0.42 -0.66,0.61 a 9.84,9.84 0 0 1 -1.2,1 10.79,10.79 0 0 1 -1.51,0.91 12.49,12.49 0 0 1 -3.51,1.13 11.47,11.47 0 0 1 -2.17,0.18 11.79,11.79 0 0 1 -1.89,-0.14 9.88,9.88 0 0 1 -1.85,-0.43 l -0.65,-0.22 a 10.71,10.71 0 0 1 -1.85,-0.86 10.65,10.65 0 0 1 -2,0.92 9.69,9.69 0 0 1 -1,0.29 9.41,9.41 0 0 1 -1,0.23 13,13 0 0 1 -4,0.1 9.86,9.86 0 0 1 -2.25,-0.51 9.65,9.65 0 0 1 -1.09,-0.42 10.93,10.93 0 0 1 -3,-1.91 9.92,9.92 0 0 1 -1.44,-1.36 12.6,12.6 0 0 1 -13.65,3.59 21.76,21.76 0 0 1 -5.52,0.71 22,22 0 0 1 -10.77,-2.81 22.17,22.17 0 0 1 -29.3,9.45 12.47,12.47 0 0 1 -6.37,-6.74 12,12 0 0 1 -1.53,0.1 15.63,15.63 0 0 1 -9.6,-3.3 12.76,12.76 0 0 1 -8.51,3.3 15.72,15.72 0 0 1 -10.82,-4.43 23.33,23.33 0 0 1 -14,4.35 22.49,22.49 0 0 1 -16.13,-7 12.82,12.82 0 0 1 -11.38,7 12.56,12.56 0 0 1 -8.94,-3.76 22.26,22.26 0 0 1 -9.7,3.56 12.88,12.88 0 0 1 -12.64,10.05 z"
       id="path10"
       inkscape:connector-curvature="0"
       style="fill:#ee7f9a" />
    <path
       class="cls-3"
       d="m 774.57,141.41 a 7.44,7.44 0 0 1 6.18,3.29 l 0.54,0.81 h 1 a 7.44,7.44 0 0 1 5.8,12 20.4,20.4 0 0 1 7.72,-1.53 19.92,19.92 0 0 1 5.55,0.79 11.2,11.2 0 0 1 10.51,1.2 11.2,11.2 0 0 1 6.37,-2 11.51,11.51 0 0 1 3.55,0.56 19.14,19.14 0 0 1 4.57,-0.56 19.82,19.82 0 0 1 8.2,1.76 19.91,19.91 0 0 1 8.24,-1.76 19.27,19.27 0 0 1 12.43,4.54 11.26,11.26 0 0 1 9,-4.54 11.79,11.79 0 0 1 4.28,0.8 21.28,21.28 0 0 1 5.72,-0.8 20.76,20.76 0 0 1 12.53,4.23 11.26,11.26 0 0 1 8.72,-4.18 11.48,11.48 0 0 1 4.52,0.98 19.21,19.21 0 0 1 5.85,-0.92 H 906 a 11.23,11.23 0 0 1 7,2.5 20.8,20.8 0 0 1 10,-2.58 21.14,21.14 0 0 1 10.22,2.6 l 0.21,-0.19 v -1.47 A 11.41,11.41 0 0 1 954,150 a 11.37,11.37 0 0 1 20.42,6.23 11.3,11.3 0 0 1 10.6,3.15 11.19,11.19 0 0 1 8.15,-3.43 11.31,11.31 0 0 1 8.6,4 20.39,20.39 0 0 1 12.16,-4 19.91,19.91 0 0 1 5.55,0.79 11,11 0 0 1 9.67,0.73 c 0.13,-0.06 0.24,-0.15 0.38,-0.21 a 10.8,10.8 0 0 1 4.43,-0.94 11.27,11.27 0 0 1 10.12,6.5 11.28,11.28 0 0 1 4.76,-1.05 11.44,11.44 0 0 1 4.81,1 11.18,11.18 0 0 1 10.14,-6.49 v 0 a 11,11 0 0 1 4.48,0.95 11.58,11.58 0 0 1 3.31,2.24 21.06,21.06 0 0 1 24.93,1.11 c 0.38,-0.34 0.76,-0.68 1.18,-1 l 0.33,-0.24 a 19.82,19.82 0 0 1 11.27,-3.43 21.64,21.64 0 0 1 12.66,4.36 c 0.15,0.1 0.27,0.23 0.42,0.34 a 20.35,20.35 0 0 1 13.07,-4.7 20.11,20.11 0 0 1 12.25,4.18 11.22,11.22 0 0 1 8.69,-4.18 11.51,11.51 0 0 1 3.55,0.56 19.14,19.14 0 0 1 4.57,-0.56 19.82,19.82 0 0 1 8.2,1.76 19.91,19.91 0 0 1 8.24,-1.76 19.31,19.31 0 0 1 14.44,6.51 21.08,21.08 0 0 1 36.3,13.66 q 0,0.25 0,0.5 v 0.26 a 10,10 0 0 1 -0.23,2.22 10.7,10.7 0 0 1 -2.4,5 11,11 0 0 1 0.09,1.94 10.61,10.61 0 0 1 -3.47,7.44 21.71,21.71 0 0 1 -15.2,5.7 21,21 0 0 1 -12.59,-4.34 11.27,11.27 0 0 1 -17,0.87 11.34,11.34 0 0 1 -16.32,0 11.51,11.51 0 0 1 -8.16,3.46 9.93,9.93 0 0 1 -1.35,-0.09 8.52,8.52 0 0 1 -1.25,-0.22 11.56,11.56 0 0 1 -6,-3.77 20.1,20.1 0 0 1 -12.31,4.24 20.36,20.36 0 0 1 -13.15,-4.75 c -0.35,0.3 -0.71,0.61 -1.09,0.88 l -0.13,0.09 a 20.36,20.36 0 0 1 -11.67,3.62 h -0.11 a 22.88,22.88 0 0 1 -12.78,-4.19 21.93,21.93 0 0 1 -13.35,4.19 21.29,21.29 0 0 1 -16.85,-8.63 l -0.75,1.76 -0.11,0.24 a 10.37,10.37 0 0 1 -0.83,1.53 v 0 q -0.17,0.26 -0.36,0.51 a 10.52,10.52 0 0 1 -1,1.2 q -0.29,0.29 -0.6,0.55 a 8.53,8.53 0 0 1 -1.06,0.87 9.5,9.5 0 0 1 -1.34,0.81 8.55,8.55 0 0 1 -2.17,0.8 8.88,8.88 0 0 1 -0.94,0.2 10.29,10.29 0 0 1 -2,0.16 10.47,10.47 0 0 1 -1.67,-0.12 8.64,8.64 0 0 1 -1.62,-0.38 l -0.6,-0.2 a 9.51,9.51 0 0 1 -2.34,-1.21 9.32,9.32 0 0 1 -2.45,1.26 8.49,8.49 0 0 1 -0.85,0.25 9,9 0 0 1 -0.9,0.21 11.72,11.72 0 0 1 -3.6,0.09 8.7,8.7 0 0 1 -2,-0.45 8.55,8.55 0 0 1 -1,-0.37 9.6,9.6 0 0 1 -2.7,-1.71 8.53,8.53 0 0 1 -2,-2.08 l -0.25,-0.36 v 0 l -0.1,-0.15 a 11.29,11.29 0 0 1 -9.5,5.22 11.16,11.16 0 0 1 -4.1,-0.78 20.32,20.32 0 0 1 -5.58,0.78 20.57,20.57 0 0 1 -11.33,-3.38 20.81,20.81 0 0 1 -28.18,10.25 11.06,11.06 0 0 1 -6.05,-7.06 11.37,11.37 0 0 1 -2.46,0.28 14.27,14.27 0 0 1 -9.68,-3.79 11.35,11.35 0 0 1 -8.43,3.79 14.3,14.3 0 0 1 -10.69,-4.82 21.81,21.81 0 0 1 -14.12,4.83 21.28,21.28 0 0 1 -16.61,-8.23 11.38,11.38 0 0 1 -10.94,8.26 11.24,11.24 0 0 1 -8.73,-4.21 20.9,20.9 0 0 1 -11.09,4.11 11.48,11.48 0 0 1 -11.43,9.94 11.3,11.3 0 0 1 -11.2,-10.1 11.25,11.25 0 0 1 -10.33,-3.26 11.34,11.34 0 0 1 -16.32,0 11.51,11.51 0 0 1 -8.16,3.46 9.94,9.94 0 0 1 -1.35,-0.09 8.52,8.52 0 0 1 -1.25,-0.22 11.63,11.63 0 0 1 -3.75,-1.7 11.21,11.21 0 0 1 -10.51,1.23 20.33,20.33 0 0 1 -5.58,0.78 20.57,20.57 0 0 1 -11.52,-3.51 11.34,11.34 0 0 1 -19.53,-7.86 l 0.09,-26.36 -1,-0.72 a 7.44,7.44 0 0 1 2.41,-13.13 l 0.94,-0.27 0.31,-0.93 a 7.44,7.44 0 0 1 7.05,-5.06 m 0,-2.76 a 10.26,10.26 0 0 0 -1.35,0.09 10.13,10.13 0 0 0 -8.15,6.41 10.2,10.2 0 0 0 -3,17.73 l -0.08,25 a 14.13,14.13 0 0 0 14.17,14.17 13.93,13.93 0 0 0 8.48,-2.86 23.36,23.36 0 0 0 11.21,2.86 23.12,23.12 0 0 0 5.46,-0.65 14,14 0 0 0 10.63,-0.9 14.13,14.13 0 0 0 3.07,1.17 11.29,11.29 0 0 0 1.6,0.28 12.69,12.69 0 0 0 1.66,0.11 14.22,14.22 0 0 0 8.14,-2.61 14.11,14.11 0 0 0 16.34,0 14,14 0 0 0 8.15,2.6 14,14 0 0 0 13.35,9.84 14.28,14.28 0 0 0 13.71,-10.18 23.62,23.62 0 0 0 8.43,-3.07 13.9,13.9 0 0 0 9.1,3.41 14.19,14.19 0 0 0 11.68,-6.19 23.78,23.78 0 0 0 15.9,6.19 24.83,24.83 0 0 0 13.92,-4 17.08,17.08 0 0 0 10.94,4 14.1,14.1 0 0 0 8.57,-2.94 17,17 0 0 0 9.55,2.94 h 0.67 a 13.86,13.86 0 0 0 6.66,6.53 23.54,23.54 0 0 0 30.4,-8.88 23.36,23.36 0 0 0 10.24,2.36 23.12,23.12 0 0 0 5.46,-0.65 14,14 0 0 0 13.71,-3.06 l 0.55,0.46 a 12.32,12.32 0 0 0 3.36,2.11 13.65,13.65 0 0 0 3.73,1 13.43,13.43 0 0 0 1.87,0.12 13.28,13.28 0 0 0 2.59,-0.24 c 0.34,-0.06 0.71,-0.15 1.08,-0.25 0.37,-0.1 0.7,-0.19 1,-0.31 a 11.92,11.92 0 0 0 1.56,-0.65 12.28,12.28 0 0 0 1.4,0.59 l 0.71,0.24 a 11.43,11.43 0 0 0 2.05,0.47 13.2,13.2 0 0 0 2.07,0.15 13,13 0 0 0 2.42,-0.2 c 0.39,-0.06 0.77,-0.14 1.14,-0.24 a 11.31,11.31 0 0 0 2.77,-1 12.21,12.21 0 0 0 1.67,-1 11.29,11.29 0 0 0 1.31,-1.06 c 0.24,-0.2 0.47,-0.41 0.69,-0.63 l 0.25,0.17 1.55,-2.35 0.09,-0.14 a 23.72,23.72 0 0 0 16.12,6.46 25,25 0 0 0 13.42,-3.65 25.27,25.27 0 0 0 12.7,3.65 h 0.14 a 23.11,23.11 0 0 0 12.92,-3.89 23,23 0 0 0 25.13,0.61 14.22,14.22 0 0 0 5.68,2.88 11.36,11.36 0 0 0 1.6,0.28 12.68,12.68 0 0 0 1.66,0.11 14.22,14.22 0 0 0 8.14,-2.61 14.11,14.11 0 0 0 16.34,0 14,14 0 0 0 17.4,-0.9 23.54,23.54 0 0 0 12.19,3.5 24.44,24.44 0 0 0 17.09,-6.43 13.33,13.33 0 0 0 4.36,-9.35 c 0,-0.4 0,-0.81 0,-1.22 a 13.54,13.54 0 0 0 2.26,-5.28 12.66,12.66 0 0 0 0.28,-2.77 v -0.26 q 0,-0.33 0,-0.67 a 23.8,23.8 0 0 0 -23.89,-22.77 23.55,23.55 0 0 0 -15.11,5.46 22.1,22.1 0 0 0 -14.5,-5.46 22.57,22.57 0 0 0 -8.24,1.53 22.44,22.44 0 0 0 -8.2,-1.53 21.88,21.88 0 0 0 -4.48,0.47 14.28,14.28 0 0 0 -3.63,-0.47 13.87,13.87 0 0 0 -9,3.37 23,23 0 0 0 -25,0.68 23.73,23.73 0 0 0 -13,-4 22.56,22.56 0 0 0 -12.82,3.92 v 0 a 23.84,23.84 0 0 0 -24.6,-1 14,14 0 0 0 -2.43,-1.39 13.77,13.77 0 0 0 -5.6,-1.18 14,14 0 0 0 -11.37,5.9 14.24,14.24 0 0 0 -3.58,-0.45 14,14 0 0 0 -3.54,0.45 14,14 0 0 0 -11.34,-5.9 13.54,13.54 0 0 0 -4.75,0.85 13.57,13.57 0 0 0 -5.6,-1.22 13.85,13.85 0 0 0 -4.25,0.66 22.66,22.66 0 0 0 -5.44,-0.66 23.08,23.08 0 0 0 -11.82,3.24 14.08,14.08 0 0 0 -17.08,-0.67 14.06,14.06 0 0 0 -8.18,-2.56 h -0.13 a 14.1,14.1 0 0 0 -22.7,-7.16 14,14 0 0 0 -9,-3.31 14.23,14.23 0 0 0 -14,11.79 24.17,24.17 0 0 0 -7.88,-1.32 23.67,23.67 0 0 0 -9.74,2.11 13.78,13.78 0 0 0 -7.25,-2.06 h -0.18 a 21.92,21.92 0 0 0 -5.76,0.77 14.19,14.19 0 0 0 -4.64,-0.77 13.93,13.93 0 0 0 -9.07,3.37 23.32,23.32 0 0 0 -12.18,-3.42 23.85,23.85 0 0 0 -5.6,0.68 14.54,14.54 0 0 0 -4.4,-0.68 13.86,13.86 0 0 0 -9.35,3.61 22.1,22.1 0 0 0 -12.08,-3.61 22.57,22.57 0 0 0 -8.24,1.53 22.44,22.44 0 0 0 -8.2,-1.53 21.88,21.88 0 0 0 -4.48,0.47 14.28,14.28 0 0 0 -3.63,-0.47 13.91,13.91 0 0 0 -6.37,1.54 14,14 0 0 0 -10.62,-0.88 22.71,22.71 0 0 0 -8.85,-0.41 10.22,10.22 0 0 0 -9.61,-10.7 10.19,10.19 0 0 0 -8.2,-4.13 z"
       id="path12"
       inkscape:connector-curvature="0"
       style="fill:#ffffff" />
    <path
       class="cls-3"
       d="m 778.92,167.45 v 20.42 a 2.78,2.78 0 0 1 -2.83,2.83 2.82,2.82 0 0 1 -2.83,-2.83 v -20.42 a 2.8,2.8 0 0 1 2.83,-2.88 2.76,2.76 0 0 1 2.83,2.88 z"
       id="path14"
       inkscape:connector-curvature="0"
       style="fill:#ffffff" />
    <path
       class="cls-3"
       d="m 808.24,177.66 v 10.26 a 2.79,2.79 0 0 1 -2.77,2.78 2.85,2.85 0 0 1 -2.72,-2.25 11.88,11.88 0 0 1 -7,2.25 12.17,12.17 0 0 1 -8.9,-3.82 13.4,13.4 0 0 1 -3.56,-9.21 13.21,13.21 0 0 1 3.56,-9.21 12.05,12.05 0 0 1 8.9,-3.93 11.93,11.93 0 0 1 7,2.3 2.84,2.84 0 0 1 2.72,-2.3 2.8,2.8 0 0 1 2.77,2.83 z m -5.55,0 a 7.69,7.69 0 0 0 -2,-5.39 6.47,6.47 0 0 0 -4.87,-2.15 6.31,6.31 0 0 0 -4.87,2.15 7.66,7.66 0 0 0 -2,5.39 7.86,7.86 0 0 0 2,5.39 6.59,6.59 0 0 0 4.87,2 6.77,6.77 0 0 0 4.87,-2 7.89,7.89 0 0 0 2,-5.39 z"
       id="path16"
       inkscape:connector-curvature="0"
       style="fill:#ffffff" />
    <path
       class="cls-3"
       d="m 837.33,175.35 v 12.56 a 2.79,2.79 0 0 1 -2.78,2.78 2.87,2.87 0 0 1 -2.83,-2.78 v -12.56 a 5.3405992,5.3405992 0 0 0 -10.68,0.16 v 12.41 c 0,0.1 -0.05,0.26 -0.05,0.37 v 0.16 c -0.05,0.11 -0.05,0.21 -0.16,0.31 V 189 a 3.06,3.06 0 0 1 -2.62,1.68 c -0.21,0 -0.37,-0.05 -0.52,-0.05 a 2.85,2.85 0 0 1 -2.25,-2.72 v -20.57 a 2.77,2.77 0 0 1 2.77,-2.83 2.66,2.66 0 0 1 2.51,1.57 11,11 0 0 1 5.6,-1.57 10.86,10.86 0 0 1 8.22,3.61 10.79,10.79 0 0 1 8.22,-3.61 10.94,10.94 0 0 1 10.89,11 v 12.41 a 2.79,2.79 0 0 1 -2.78,2.78 2.84,2.84 0 0 1 -2.83,-2.78 v -12.41 a 5.36,5.36 0 0 0 -5.29,-5.39 5.43,5.43 0 0 0 -5.42,5.23 z"
       id="path18"
       inkscape:connector-curvature="0"
       style="fill:#ffffff" />
    <path
       class="cls-3"
       d="m 861.43,197.71 v -30.42 a 2.79,2.79 0 0 1 2.77,-2.78 2.87,2.87 0 0 1 2.88,2.15 13.29,13.29 0 0 1 7.12,-2.15 c 7,0 12.67,6 12.67,13.14 a 12.85,12.85 0 0 1 -12.67,13 12.11,12.11 0 0 1 -7,-2.15 v 9.21 a 3,3 0 0 1 -3,2.83 2.87,2.87 0 0 1 -2.77,-2.83 z m 5.76,-20.05 a 7,7 0 0 0 2,5.23 6.48,6.48 0 0 0 5,2.2 6.69,6.69 0 0 0 4.92,-2.2 7.63,7.63 0 0 0 2,-5.23 8.08,8.08 0 0 0 -2,-5.29 6.84,6.84 0 0 0 -4.92,-2.15 6.62,6.62 0 0 0 -5,2.15 7.35,7.35 0 0 0 -2,5.29 z"
       id="path20"
       inkscape:connector-curvature="0"
       style="fill:#ffffff" />
    <path
       class="cls-3"
       d="m 908.81,167.29 a 2.79,2.79 0 0 1 -2.77,2.78 5,5 0 0 0 -3.14,1 7.87,7.87 0 0 0 -2.41,2.51 16.08,16.08 0 0 0 -2.15,4.4 v 9.95 a 2.85,2.85 0 0 1 -2.88,2.78 2.79,2.79 0 0 1 -2.78,-2.78 v -20.64 a 2.75,2.75 0 0 1 2.78,-2.72 2.81,2.81 0 0 1 2.88,2.72 v 0.37 a 7,7 0 0 1 1.1,-1 11.5,11.5 0 0 1 6.6,-2 2.72,2.72 0 0 1 2.77,2.63 z"
       id="path22"
       inkscape:connector-curvature="0"
       style="fill:#ffffff" />
    <path
       class="cls-3"
       d="m 910.26,177.61 a 13,13 0 0 1 12.74,-13.09 12.52,12.52 0 0 1 12.62,12.15 v 0.26 a 1.43,1.43 0 0 1 -0.05,0.47 2.52,2.52 0 0 1 -2.72,2.09 h -16.62 a 6.86,6.86 0 0 0 1.78,3.45 8.1,8.1 0 0 0 5,2.36 8.56,8.56 0 0 0 5.44,-1.31 3,3 0 0 1 3.93,-0.16 2.39,2.39 0 0 1 0,3.4 13.23,13.23 0 0 1 -9.37,3.45 13,13 0 0 1 -12.75,-13.07 z M 916,175 h 14.82 c -0.52,-2.09 -3.19,-5.18 -7.75,-5.55 A 7.31,7.31 0 0 0 916,175 Z"
       id="path24"
       inkscape:connector-curvature="0"
       style="fill:#ffffff" />
    <path
       class="cls-3"
       d="m 952,167.4 a 3,3 0 0 1 -2.93,2.88 h -1.31 v 14.61 a 2.88,2.88 0 0 1 2.88,2.93 2.84,2.84 0 0 1 -2.88,2.88 5.83,5.83 0 0 1 -5.81,-5.81 v -14.61 h -1.52 a 2.87,2.87 0 0 1 -2.88,-2.88 2.84,2.84 0 0 1 2.88,-2.88 H 942 v -7.59 a 2.88,2.88 0 0 1 2.93,-2.88 2.84,2.84 0 0 1 2.88,2.88 v 7.59 h 1.31 a 2.92,2.92 0 0 1 2.88,2.88 z"
       id="path26"
       inkscape:connector-curvature="0"
       style="fill:#ffffff" />
    <path
       class="cls-3"
       d="m 970.16,167.4 a 3,3 0 0 1 -2.93,2.88 h -1.31 v 14.61 a 2.88,2.88 0 0 1 2.88,2.93 2.84,2.84 0 0 1 -2.88,2.88 5.83,5.83 0 0 1 -5.81,-5.81 v -14.61 h -1.52 a 2.87,2.87 0 0 1 -2.88,-2.88 2.84,2.84 0 0 1 2.88,-2.88 h 1.52 v -7.59 A 2.88,2.88 0 0 1 963,154 a 2.84,2.84 0 0 1 2.88,2.88 v 7.59 h 1.31 a 2.92,2.92 0 0 1 2.97,2.93 z"
       id="path28"
       inkscape:connector-curvature="0"
       style="fill:#ffffff" />
    <path
       class="cls-3"
       d="m 996,167.29 v 19.79 a 12.37,12.37 0 0 1 -17.9,11.2 2.74,2.74 0 0 1 -1.36,-3.72 2.88,2.88 0 0 1 3.72,-1.15 7,7 0 0 0 3,0.73 6.92,6.92 0 0 0 6.54,-4.76 10.17,10.17 0 0 1 -5,1.26 11,11 0 0 1 -10.94,-11 v -12.35 a 2.78,2.78 0 0 1 2.72,-2.78 2.7,2.7 0 0 1 2.77,2.78 v 12.35 a 5.42,5.42 0 0 0 10.84,0 v -12.35 a 2.68,2.68 0 0 1 2.72,-2.78 2.8,2.8 0 0 1 2.89,2.78 z"
       id="path30"
       inkscape:connector-curvature="0"
       style="fill:#ffffff" />
    <path
       class="cls-3"
       d="m 1026.35,177.66 v 10.26 a 2.79,2.79 0 0 1 -2.77,2.78 2.85,2.85 0 0 1 -2.72,-2.25 11.88,11.88 0 0 1 -7,2.25 12.17,12.17 0 0 1 -8.9,-3.82 13.4,13.4 0 0 1 -3.56,-9.21 13.21,13.21 0 0 1 3.56,-9.21 12.05,12.05 0 0 1 8.9,-3.93 11.93,11.93 0 0 1 7,2.3 2.84,2.84 0 0 1 2.72,-2.3 2.8,2.8 0 0 1 2.77,2.83 z m -5.55,0 a 7.69,7.69 0 0 0 -2,-5.39 6.47,6.47 0 0 0 -4.87,-2.15 6.31,6.31 0 0 0 -4.87,2.15 7.66,7.66 0 0 0 -2,5.39 7.86,7.86 0 0 0 2,5.39 6.59,6.59 0 0 0 4.87,2 6.77,6.77 0 0 0 4.87,-2 7.89,7.89 0 0 0 2,-5.39 z"
       id="path32"
       inkscape:connector-curvature="0"
       style="fill:#ffffff" />
    <path
       class="cls-3"
       d="m 1066.3,168.7 -8.64,20.3 a 3.23,3.23 0 0 1 -0.21,0.42 0.05,0.05 0 0 1 -0.05,0.05 1.41,1.41 0 0 1 -0.26,0.31 0.16,0.16 0 0 1 -0.1,0.05 1.39,1.39 0 0 1 -0.31,0.26 c 0,0.05 -0.05,0.05 -0.05,0.11 a 1.38,1.38 0 0 1 -0.47,0.26 0.05,0.05 0 0 0 -0.05,0.05 1.65,1.65 0 0 0 -0.42,0.11 h -0.1 a 1.62,1.62 0 0 1 -0.52,0.05 1.46,1.46 0 0 1 -0.47,-0.05 h -0.1 a 0.76,0.76 0 0 0 -0.37,-0.11 l -0.05,-0.05 H 1054 a 1.24,1.24 0 0 1 -0.47,-0.31 v -0.05 c -0.16,-0.05 -0.21,-0.16 -0.31,-0.26 -0.1,-0.1 -0.11,0 -0.11,-0.05 a 1.44,1.44 0 0 1 -0.26,-0.31 0.05,0.05 0 0 1 -0.05,-0.05 3.1,3.1 0 0 1 -0.21,-0.42 l -3.82,-9.06 -3.67,9.05 c -0.05,0.1 -0.16,0.26 -0.26,0.42 v 0.05 l -0.31,0.31 a 0.05,0.05 0 0 1 -0.05,0.05 l -0.31,0.31 a 1.81,1.81 0 0 1 -0.47,0.31 h -0.11 a 0.05,0.05 0 0 0 -0.05,0.05 0.56,0.56 0 0 0 -0.31,0.11 h -0.11 a 2,2 0 0 1 -0.52,0.05 1.63,1.63 0 0 1 -0.52,-0.05 h -0.16 a 0.74,0.74 0 0 0 -0.31,-0.11 c -0.05,-0.05 -0.05,-0.05 -0.11,-0.05 a 1,1 0 0 1 -0.47,-0.31 c -0.05,0 -0.05,0 -0.05,-0.05 a 2,2 0 0 0 -0.31,-0.26 l -0.1,-0.05 c -0.05,-0.11 -0.16,-0.21 -0.21,-0.31 -0.05,-0.1 -0.05,0 -0.05,-0.05 a 2.91,2.91 0 0 0 -0.26,-0.42 l -8.59,-20.31 a 2.71,2.71 0 0 1 1.52,-3.61 2.6,2.6 0 0 1 3.45,1.57 l 6.18,14.08 3.66,-8.74 a 2.8,2.8 0 0 1 2.57,-1.68 2.69,2.69 0 0 1 2.56,1.68 l 3.72,8.74 6.18,-14.08 a 2.62,2.62 0 0 1 3.51,-1.57 2.75,2.75 0 0 1 1.49,3.62 z"
       id="path34"
       inkscape:connector-curvature="0"
       style="fill:#ffffff" />
    <path
       class="cls-3"
       d="m 1070.41,177.61 a 13,13 0 0 1 12.77,-13.09 12.52,12.52 0 0 1 12.62,12.15 v 0.26 a 1.45,1.45 0 0 1 -0.05,0.47 2.52,2.52 0 0 1 -2.72,2.09 h -16.65 a 6.86,6.86 0 0 0 1.78,3.45 8.09,8.09 0 0 0 5,2.36 8.57,8.57 0 0 0 5.44,-1.31 3,3 0 0 1 3.93,-0.16 2.39,2.39 0 0 1 0,3.4 13.23,13.23 0 0 1 -9.37,3.45 13,13 0 0 1 -12.75,-13.07 z m 5.71,-2.57 h 14.81 c -0.52,-2.09 -3.19,-5.18 -7.75,-5.55 a 7.32,7.32 0 0 0 -7.07,5.51 z"
       id="path36"
       inkscape:connector-curvature="0"
       style="fill:#ffffff" />
    <path
       class="cls-3"
       d="m 1099.67,183.21 a 2.72,2.72 0 0 1 3.93,-0.42 9.59,9.59 0 0 0 5.76,2.3 7,7 0 0 0 3.56,-1 2.14,2.14 0 0 0 0.94,-1.57 0.78,0.78 0 0 0 -0.16,-0.52 c -0.05,-0.16 -0.26,-0.37 -0.68,-0.63 a 12.11,12.11 0 0 0 -4.19,-1.47 h -0.05 a 20.16,20.16 0 0 1 -4.55,-1.36 8.75,8.75 0 0 1 -3.61,-3 6.35,6.35 0 0 1 -0.89,-3.3 7.35,7.35 0 0 1 3.09,-5.76 11.26,11.26 0 0 1 6.44,-1.94 13.46,13.46 0 0 1 7.85,2.88 2.89,2.89 0 0 1 0.84,3.87 2.77,2.77 0 0 1 -3.87,0.73 c -1.68,-1.1 -3.14,-1.94 -4.82,-1.94 a 5.33,5.33 0 0 0 -3.14,0.94 1.59,1.59 0 0 0 -0.84,1.2 0.56,0.56 0 0 0 0.11,0.42 1.41,1.41 0 0 0 0.58,0.52 10.7,10.7 0 0 0 3.82,1.26 l 0.05,0.05 h 0.05 a 18.84,18.84 0 0 1 4.87,1.52 8.13,8.13 0 0 1 3.72,3.09 6.78,6.78 0 0 1 1,3.45 7.55,7.55 0 0 1 -3.3,6.07 11.91,11.91 0 0 1 -6.81,2.09 15.2,15.2 0 0 1 -9.32,-3.61 2.79,2.79 0 0 1 -0.38,-3.87 z"
       id="path38"
       inkscape:connector-curvature="0"
       style="fill:#ffffff" />
    <path
       class="cls-3"
       d="m 1126.39,186.87 a 13.07,13.07 0 0 1 -3.61,-9.21 13.51,13.51 0 0 1 3.61,-9.16 12.23,12.23 0 0 1 9,-4 11.57,11.57 0 0 1 8.74,4 13.08,13.08 0 0 1 3.66,9.16 12.67,12.67 0 0 1 -3.66,9.21 11.57,11.57 0 0 1 -8.74,4 12.22,12.22 0 0 1 -9,-4 z m 2.09,-9.21 a 8.47,8.47 0 0 0 1.88,5.55 7.08,7.08 0 0 0 5,1.94 6.85,6.85 0 0 0 4.82,-1.94 8,8 0 0 0 2,-5.55 7.87,7.87 0 0 0 -2,-5.44 7.39,7.39 0 0 0 -4.82,-2 7.61,7.61 0 0 0 -5,2 8.28,8.28 0 0 0 -1.87,5.44 z"
       id="path40"
       inkscape:connector-curvature="0"
       style="fill:#ffffff" />
    <path
       class="cls-3"
       d="m 1175.45,175.35 v 12.56 a 2.79,2.79 0 0 1 -2.78,2.78 2.87,2.87 0 0 1 -2.83,-2.78 v -12.56 a 5.3405992,5.3405992 0 0 0 -10.68,0.16 v 12.41 c 0,0.1 -0.05,0.26 -0.05,0.37 v 0.16 c -0.05,0.11 -0.05,0.21 -0.16,0.31 V 189 a 3.06,3.06 0 0 1 -2.62,1.68 c -0.21,0 -0.37,-0.05 -0.52,-0.05 a 2.85,2.85 0 0 1 -2.25,-2.72 v -20.57 a 2.77,2.77 0 0 1 2.77,-2.83 2.66,2.66 0 0 1 2.51,1.57 11,11 0 0 1 5.6,-1.57 10.86,10.86 0 0 1 8.22,3.61 10.79,10.79 0 0 1 8.22,-3.61 10.94,10.94 0 0 1 10.89,11 v 12.41 a 2.79,2.79 0 0 1 -2.78,2.78 2.84,2.84 0 0 1 -2.83,-2.78 v -12.41 a 5.36,5.36 0 0 0 -5.29,-5.39 5.43,5.43 0 0 0 -5.42,5.23 z"
       id="path42"
       inkscape:connector-curvature="0"
       style="fill:#ffffff" />
    <path
       class="cls-3"
       d="m 1197.72,177.61 a 13,13 0 0 1 12.77,-13.09 12.52,12.52 0 0 1 12.62,12.15 v 0.26 a 1.45,1.45 0 0 1 -0.05,0.47 2.52,2.52 0 0 1 -2.72,2.09 h -16.65 a 6.86,6.86 0 0 0 1.78,3.45 8.09,8.09 0 0 0 5,2.36 8.57,8.57 0 0 0 5.44,-1.31 3,3 0 0 1 3.93,-0.16 2.39,2.39 0 0 1 0,3.4 13.23,13.23 0 0 1 -9.37,3.45 13,13 0 0 1 -12.75,-13.07 z m 5.71,-2.57 h 14.81 c -0.52,-2.09 -3.19,-5.18 -7.75,-5.55 a 7.32,7.32 0 0 0 -7.06,5.51 z"
       id="path44"
       inkscape:connector-curvature="0"
       style="fill:#ffffff" />
    <path
       class="cls-4"
       d="m 782.68,152.69 a 1,1 0 0 0 -0.78,-1.63 h -3.81 a 0.7,0.7 0 0 1 -0.58,-0.31 l -2.13,-3.17 a 1,1 0 0 0 -1.79,0.24 l -1.22,3.61 a 0.7,0.7 0 0 1 -0.47,0.45 l -3.67,1 a 1,1 0 0 0 -0.33,1.77 l 3.06,2.28 a 0.7,0.7 0 0 1 0.28,0.59 l -0.14,3.81 a 1,1 0 0 0 1.59,0.86 l 3.11,-2.21 a 0.7,0.7 0 0 1 0.65,-0.09 l 3.58,1.31 a 1,1 0 0 0 1.31,-1.24 l -1.14,-3.64 a 0.7,0.7 0 0 1 0.12,-0.64 z"
       id="path46"
       inkscape:connector-curvature="0"
       style="fill:#ffca1c" />
  </g>
</svg>
