<svg xmlns="http://www.w3.org/2000/svg" viewBox="0 0 304 341.8"><defs><style>.cls-1{fill:#c4c4c4;}.cls-2{fill:#fff;}.cls-3{fill:none;stroke:#969696;stroke-miterlimit:10;stroke-width:2.18px;}.cls-4{fill:#383838;}.cls-5{fill:#5d5e5e;}.cls-6{fill:#59c097;}</style></defs><title>tablet</title><g id="Layer_3" data-name="Layer 3"><path class="cls-1" d="M129,319.08a5.11,5.11,0,0,1-4.67-3L26.77,96.92a5.11,5.11,0,0,1,2.58-6.73L174.67,25.5a5,5,0,0,1,2.06-.44,5.11,5.11,0,0,1,4.67,3l97.55,219.14a5.1,5.1,0,0,1-2.58,6.73L131.05,318.64A5,5,0,0,1,129,319.08Z"/><path class="cls-2" d="M176.73,27.16a3,3,0,0,1,2.75,1.78L277,248.08a3,3,0,0,1-1.52,4L130.2,316.72A3,3,0,0,1,129,317a3,3,0,0,1-2.75-1.78L28.69,96.07a3,3,0,0,1,1.52-4L175.52,27.42a3,3,0,0,1,1.21-.26m0-4.2a7.13,7.13,0,0,0-2.92.62L28.5,88.27a7.2,7.2,0,0,0-3.65,9.5l97.55,219.14a7.21,7.21,0,0,0,6.58,4.27,7.13,7.13,0,0,0,2.92-.62l145.31-64.69a7.2,7.2,0,0,0,3.65-9.5L183.31,27.23A7.21,7.21,0,0,0,176.73,23Z"/><rect class="cls-3" x="39.7" y="98.97" width="226.32" height="146.21" rx="3" ry="3" transform="translate(247.89 -37.56) rotate(66)"/><path class="cls-4" d="M96.42,14.29h41.84a.3.3,0,0,1,.3.3V162.65a0,0,0,0,1,0,0H96.42a3,3,0,0,1-3-3V17.29a3,3,0,0,1,3-3Z" transform="translate(149.64 -53.47) rotate(66)"/><rect class="cls-5" x="95.43" y="69.16" width="45.14" height="36.82" transform="translate(150.01 -55.84) rotate(66)"/><rect class="cls-6" x="100.72" y="88.93" width="37.62" height="4.15" transform="translate(154.06 -55.2) rotate(66)"/></g></svg>