<svg xmlns="http://www.w3.org/2000/svg" viewBox="0 0 613.89 794"><defs><style>.cls-1{fill:#f599b2;}.cls-2{fill:#fee0cc;}.cls-3{fill:#f3cab9;}.cls-4{fill:#382127;}.cls-5{fill:#57332a;}.cls-6{fill:#fff;}.cls-7{fill:#f3e8ec;}.cls-8{fill:#e1dfcc;}.cls-9{fill:#f8b3c2;}.cls-10{fill:#f0c8a6;}.cls-11{fill:#341b11;}</style></defs><title>emily_character</title><g id="Layer_3" data-name="Layer 3"><path class="cls-1" d="M415.33,307.22s-10.63-7-39.17-3.23c-32,4.27-45.17,4.22-45.17,4.22l78.25-47.28Z"/><path class="cls-2" d="M251.23,415.52S156.16,246.44,139.76,214.38c-16.91-33.07-32.13-53.32-32.13-53.32s-14.49-.67-34.55-17.81-33.39-19.31-40.21-20.69-12.46-22.87.47-28.09a26.47,26.47,0,0,1,6.86-1.25s-9-2-8.14-5.53c1.12-4.45,18.68-7.86,35.15-1.7,19,7.11,40.17,19.77,40.17,19.77s-1.35-8.91-2-15.41,6.69-11.82,13.35-1.28,17.76,21.61,17.34,32.85l-.42,11.24,69.24,104.45c-4.06-6.12,72.89,111,74.08,111.57S251.23,415.52,251.23,415.52Z"/><path class="cls-3" d="M370.48,299.89s-1,15.48,8.24,17.61c5.26,1.21,15.35-1.41,15.35-1.41s1.34,50.23-37.32,54.94-58.15-42.24-58.15-42.24,15,1.81,17-6.35a27,27,0,0,0-.19-12.58Z"/><path class="cls-4" d="M328.33,334.32a61.07,61.07,0,0,0,19.64-.06c19.63-3,26.51-14.21,28.53-16.45l-3.26-4.42c-1.18,1.41-9.62,11.28-26.35,13.86-20.62,3.17-31.23-4.48-31.32-4.56l-3.59,4.5C312.31,327.46,317.68,332.49,328.33,334.32Z"/><ellipse class="cls-2" cx="327.5" cy="216.32" rx="93.46" ry="98.18" transform="translate(-18.45 30.94) rotate(-5.26)"/><path class="cls-4" d="M425.33,306.48s31.91-1.72,48.36,24.16c20.28,31.92,19.41,35.43,19.41,35.43s-5.52,7.14-18.36,15.14c-24.19,15.08-46.43,10.39-46.43,10.39s-10.25-27.71-16.4-49.42C403.48,312.46,425.33,306.48,425.33,306.48Z"/><path class="cls-5" d="M337.45,160.62c2.69,1.73,16.16-2.26,24-2.37s26.28,6.06,26.28,6.06-15.83-13.57-32.7-12.37C335.2,153.33,334.76,158.88,337.45,160.62Z"/><path class="cls-5" d="M296.48,167.31c-2.19,2.33-14,1.73-21.62,3.52-11.2,2.64-15.39,5.25-20.67,8.8-1,.69-2,0-1.65-.85,2.11-5.39,7.27-11.45,24.82-15.66C296.66,158.49,298.67,165,296.48,167.31Z"/><path class="cls-4" d="M297.65,436.11s-6.24,10-20.82,3.42-36.27-30.65-36.27-30.65-4.33-52.87,3.94-72.93,12.4-20.72,12.4-20.72L289,328.94Z"/><path class="cls-4" d="M457.86,381.47s-2.35,51,12.37,86.22C475.84,481.14,502.45,537.83,527,585c13.23,25.46,55.21,68.49,55.21,68.49s-14.43,82.16-149.07,95.88c-134.28,13.68-182.83-40.18-182.83-40.18A385.38,385.38,0,0,0,263.92,643c7.88-66.7,13.15-162.67,13.69-183.61.84-32.82-29.18-41.77-29.18-41.77s4.73-42.82,10.38-61.43,23.55-26.68,23.55-26.68,31,54.23,75.44,39.29S414,306.52,414,306.52Z"/><path class="cls-3" d="M319.62,743.58A271.45,271.45,0,0,0,356,749.86a354,354,0,0,0,45.41,1.64l.5,6.49s-17.33,1.51-43.53-1c-15-1.42-37.21-7-37.21-7Z"/><path class="cls-3" d="M434.43,749.27a268.76,268.76,0,0,0,43.62-7.9,209,209,0,0,0,31.7-11.15l0,12.21s-29.7,7.82-43,10.18-31,3.5-31,3.5Z"/><path class="cls-3" d="M219.58,359a44.78,44.78,0,0,1,3.26-9.73c9.18-20.13,15.71-25.42,15.71-25.42l-6.46,58.72C228.26,376,224.09,366.88,219.58,359Z"/><path class="cls-3" d="M474.94,395.11s6.39,44.18-1.42,75.63S460,515,448.8,517.82s-15.12-37.32-14.71-72.2,6.14-52,6.14-52Z"/><path class="cls-6" d="M335.65,290.84c-67.48,8.83-80.29-47.75-80.29-47.75s28.24-16.5,68.37-21c45.07-5,76.48,2.29,76.48,2.29S396.94,282.82,335.65,290.84Z"/><path class="cls-1" d="M357.18,143.81S342.88,131,324.69,130.6c-23.21-.45-27.87,6.38-27.87,6.38S295,117.5,312.54,114,357.18,143.81,357.18,143.81Z"/><path class="cls-7" d="M388.87,482.94s-14,13.21-14.3,12.33-4.85-16.48-9.74-42.72-6.35-65.23-6.35-65.23,17.27,64.42,20,72.72C384.67,478.86,388.87,482.94,388.87,482.94Z"/><path class="cls-6" d="M376.75,483.42s-7,4.24-13.84,3.75a43.07,43.07,0,0,1-13.06-3.35s1.58-27.81,3.56-43.21,1.95-43.71,1.95-43.71Z"/><path class="cls-6" d="M500.86,377.65l-8.17-17.86s-7.1,11.13-27.48,21.57c-10,5.13-28.5,12.61-28.5,12.61l2.78,22.89s21.55,1.66,50-22C502.14,384.46,500.86,377.65,500.86,377.65Z"/><path class="cls-6" d="M374.23,313.48s3.8,16.79-.78,27.21-15.28,25.94-15.28,25.94,10.65,20.49,38.17,2.66,33.38-45.59,35.27-55.43A29.4,29.4,0,0,0,430,296.79s-10,.15-27.84,6.19C385.93,308.48,374.23,313.48,374.23,313.48Z"/><path class="cls-6" d="M307.21,324.36c3,.36,5.19-.31,5.22,1.24.06,4.3,5.2,14.86,11.16,21.15,10.21,10.79,34.58,19.88,34.58,19.88s-6.89,17.54-29.9,16.7S283.6,361.54,276,348.05a74.35,74.35,0,0,1-8.78-26.79Z"/><path class="cls-2" d="M439.29,414.45s19.26,30.18,23.18,55.54-.07,38.25-7.79,45c-11.31,9.93-16.93,4.61-25.85-8.45-7.91-11.57-23.73-81.82-23.73-81.82s-5.65-5.24-17.34-16.59-5.2-25.58-5.2-25.58c3.12-8.62,14.86-23.06,28.11-25.26C428.35,354.39,439.29,414.45,439.29,414.45Z"/><path class="cls-2" d="M439.29,414.45s3-37-3.64-45.74-9.08-6.07-15.13.8C414.84,376,439.29,414.45,439.29,414.45Z"/><path class="cls-6" d="M247.17,376.44c.79-26.58,11-56.79,11-56.79l-17.65-4.17s-8.89,28.07-15.17,53.14-6.47,36.75-2,42,25,7,25,7S246.38,403,247.17,376.44Z"/><path class="cls-8" d="M393.87,247.69s-15.74-1.09-39.64,3c0,0,16.06-.79,24.94-.11s13.41,1.1,13.41,1.1Z"/><path class="cls-8" d="M267.68,268.19s3.51-2.23,16.38-5.77a148.67,148.67,0,0,1,24.6-4.47,238.65,238.65,0,0,0-23.35,6.39C275.05,268,269,270.13,269,270.13Z"/><path class="cls-9" d="M293.87,137.32a53.34,53.34,0,0,1,7.71-38c12.14-18.51,56.25-33.94,100,6.79s67.29,111.92,70.58,134.93S464,286.73,464,286.73l-.26-8.45h0c-1.81,6.63-6.49,15.54-17.81,25.28-15.22,13.09-39.26,23.64-39.26,23.64S421.43,231.14,375.91,168C297.44,59.23,293.87,137.32,293.87,137.32Z"/><path class="cls-9" d="M296.82,137s14.69-25.94,38.88-9.15c27.48,19.07,61.59,86.58,64.21,143.89s-7.08,80.51-7.08,80.51,30.89-30,35-69.69-16.28-123-45.85-154.8c-33.64-36.15-56-34.12-69.68-27.32C289.21,111.9,296.82,137,296.82,137Z"/><path class="cls-1" d="M426.73,290.14c7-41.38-15.15-130.63-44.71-162.4-33.64-36.15-56-34.12-69.68-27.32,0,0,31.43-13.85,64.5,27.75s41.66,88,44.94,105.71C427.94,267.11,426.73,290.14,426.73,290.14Z"/><path class="cls-3" d="M333.44,205.87s-7.59-3.66-13.55-1.79-6.87,8.3-6.87,8.3,2.15-3.94,8.12-5.59A36.91,36.91,0,0,1,333.44,205.87Z"/><path class="cls-6" d="M377.8,414.82s-4.93,6.28-10.23,7.54-13.94-3.49-13.94-3.49-1.56-25.75-.53-35.85a40.3,40.3,0,0,1,5.08-16.39s10.06,20.54,13.73,29.06A117.9,117.9,0,0,1,377.8,414.82Z"/><path class="cls-6" d="M359,422.68s-7.58,7-14.43,3.58a66.16,66.16,0,0,1-11.94-7.8s-.67-5.54,8-21.34c6.42-11.75,17.58-30.48,17.58-30.48Z"/><path class="cls-10" d="M79.66,103a92.31,92.31,0,0,0-17.46-8.38c-9.9-3.49-22-1.4-22-1.4a51,51,0,0,1,21,3C70.16,99.67,79.66,103,79.66,103Z"/><path class="cls-9" d="M225.92,140.1c28.3-44.76,69.13-26.27,69.13-26.27L296.82,137s-31.79-5.74-45.23,31.71-12,82.36,9.92,112.47c17.07,23.45,46,30.66,54.61,32.34,0,.35.08.72.11,1.11-5,1.53-17,5.83-27.19,14.32-15.18,12.64-13.88,33.13-13.88,33.13s-30.6-2-55.25-70.24C197.71,230.39,197.62,184.86,225.92,140.1Z"/><path class="cls-1" d="M275.8,332.21C280.73,320.36,286.9,312,293.1,306a105.09,105.09,0,0,0,23,7.48c0,.35.08.72.11,1.11-5,1.53-17,5.83-27.19,14.32-15.18,12.64-13.88,33.13-13.88,33.13a14.55,14.55,0,0,1-2.4-.47C270.62,356.34,269.58,347.11,275.8,332.21Z"/><path class="cls-11" d="M253.89,200.12c2.83-1.62,7.87-6,8.86-6.82l.07-.09v0a40.49,40.49,0,0,1,9.26-5.73c14.78-6.81,29.69,3.2,29.72,5.85s-14.85-1.45-27.94,2.21c-3.62,1-14.48,8-21.34,9.27-6.34,1.21-8.8-3.46-8.8-3.46S247.49,203.78,253.89,200.12Z"/><path class="cls-11" d="M386.71,180.2c-3.21-.57-9.42-3-10.63-3.45l-.1-.06v0a40.49,40.49,0,0,0-10.64-2.29c-16.21-1.47-26.9,13-26,15.48s13.5-6.34,27.06-7.29c3.75-.26,16.31,2.64,23.21,1.58,6.38-1,7.13-6.21,7.13-6.21S394,181.5,386.71,180.2Z"/><path class="cls-6" d="M343.61,80.43c17.24,0,37.65,6.8,58,25.73,43.76,40.73,67.29,111.92,70.58,134.93S464,286.73,464,286.73l-.26-8.45c-1.81,6.63-6.49,15.54-17.81,25.28-1.8,1.55-3.72,3.05-5.71,4.52,10.55,2.39,24.38,8.25,33.48,22.58,10.94,17.22,15.72,26.16,17.81,30.76.82-1,1.2-1.62,1.2-1.62l8.17,17.86s1.28,6.81-11.32,17.25A121.35,121.35,0,0,1,476,404.66c1.41,14.73,3.06,43.65-2.51,66.09q-.36,1.46-.72,2.87C481.65,493.47,505.14,543,527,585c13.23,25.46,55.21,68.49,55.21,68.49s-8.45,48.06-72.65,76.8l.23-.1,0,12.21s-29.7,7.82-43,10.18-31,3.5-31,3.5l-1.25-6.83a268.77,268.77,0,0,0,43.62-7.9l.06,0a285.91,285.91,0,0,1-45,8c-14.3,1.46-27.61,2.14-40,2.21,2.75,0,5.52,0,8.32-.11l.5,6.49s-5.21.45-14.23.45c-7.43,0-17.46-.31-29.29-1.43-15-1.42-37.21-7-37.21-7l-1.56-6.39c2.33.58,4.76,1.13,7.25,1.66-54.8-11.84-76.6-36-76.6-36A385.38,385.38,0,0,0,263.92,643c7.88-66.7,13.15-162.67,13.69-183.61a42.19,42.19,0,0,0-5.17-22.18c-7.87-4.8-16.82-13-23.24-19.33-.5-.18-.78-.26-.78-.26l.05-.46-.13-.13c0,.38.07.59.07.59s-20.54-1.72-25-7-4.32-16.69,1.76-41.2c-1.11-2.18-2.25-4.37-3.41-6.53-29.37-52.48-71.54-128.14-82-148.5-16.91-33.07-32.13-53.32-32.13-53.32s-14.49-.67-34.55-17.81-33.39-19.31-40.21-20.69-12.46-22.87.47-28.09a26.47,26.47,0,0,1,6.86-1.25s-9-2-8.14-5.53c.68-2.72,7.5-5,16.45-5A54.15,54.15,0,0,1,67.21,86c19,7.11,40.17,19.77,40.17,19.77s-1.35-8.91-2-15.41c-.41-3.83,2-7.26,5.4-7.26,2.37,0,5.22,1.65,7.95,6,6.66,10.54,17.76,21.61,17.34,32.85l-.42,11.24L205,237.85l-.16-.25-.15-.23,1.2,1.83c-5.54-36.75.44-68.11,20-99.1,15.5-24.51,34.75-30.05,49-30.05a53.34,53.34,0,0,1,20.13,3.78h0a51.06,51.06,0,0,1,6.53-14.46c6.5-9.91,22.16-18.94,42-18.94M374.55,315.1c-.19-1-.32-1.61-.32-1.61s10.74-4.59,25.9-9.81l0-.42c-2.4-.24-5.1-.38-8.15-.38A120.07,120.07,0,0,0,376.16,304l-5.52.72a21,21,0,0,0,2.65,8.73l1,1.32.3.34m-58.33-.52c0-.33-.06-.65-.09-.95h0c0,.3.07.62.09.95m-3.71,11.94,3.05-3.82c0-.08.06-.16.08-.25a24.74,24.74,0,0,0,.58-7.83,86.8,86.8,0,0,0-19.65,8.92l10.65.83c3,.36,5.19-.31,5.22,1.24a7.59,7.59,0,0,0,.08.92m44.1,423.39-2-.22,1.38.16.6.06m-13-673.84v0a64.34,64.34,0,0,0-27.93,6.19C308,86,301.73,91.19,297.93,97a55.21,55.21,0,0,0-5.65,11.24q-.86-.26-1.75-.5a61.64,61.64,0,0,0-15.6-2c-14.78,0-35.92,5.57-52.69,32.09s-24,53.56-22.47,84.27l-2-3-23.86-36L140,131.91l.37-9.83c.37-9.85-6.12-18.73-12.4-27.32-2-2.79-4-5.43-5.61-8-4.18-6.62-8.64-8-11.64-8a9.32,9.32,0,0,0-7,3.16A11.49,11.49,0,0,0,101,90.81c.23,2.14.52,4.51.81,6.75-8-4.4-20.86-11.09-33.08-15.66a58.51,58.51,0,0,0-20.23-3.62c-9,0-19.14,2.19-20.68,8.35a6.44,6.44,0,0,0,.81,5l.19.29c-5.47,3.57-8.24,10.13-7.5,18.17C22,117.48,25.9,125.6,32,126.84l.77.15c6.64,1.32,19,3.78,37.47,19.57,16.64,14.22,29.89,17.73,35,18.58a418.15,418.15,0,0,1,30.66,51.22c10.2,20,50.23,91.83,82,148.62.93,1.73,1.84,3.46,2.61,5-6,24.65-6.1,36.91-.44,43.5,5,5.78,20.8,7.81,27,8.39,6.07,5.94,14.45,13.54,22.11,18.42a38.44,38.44,0,0,1,4.09,19c-.52,20.11-5.78,116.54-13.66,183.21a384.12,384.12,0,0,1-13.47,65.42l-.77,2.4,1.69,1.87c.87,1,20.68,22.44,69,35l.94,3.86.62,2.55,2.55.64c.92.23,22.71,5.72,37.86,7.15,10.14,1,20.14,1.45,29.71,1.45,9.11,0,14.39-.45,14.61-.47l4.3-.37-.33-4.31-.15-2c8.1-.31,16.37-.87,24.75-1.68l.53,2.88.7,3.82,3.87-.25c.73,0,18.06-1.18,31.49-3.56s42.17-9.93,43.39-10.25l3.24-.85v-3.35l0-9.42c32.36-15.15,50.17-35.18,59.48-49.5,10.5-16.17,12.79-28.72,12.89-29.24l.39-2.2-1.56-1.6c-.42-.43-41.69-42.86-54.46-67.45-21.12-40.65-44-88.75-53.43-109.8l.35-1.42c5.38-21.68,4.24-49,2.86-64.89a128.46,128.46,0,0,0,11.71-8.65c13.88-11.5,13.12-19.86,12.83-21.41l-.1-.52-.22-.48L496.66,358l-3.33-7.27L492,352.76c-3.38-6.25-8.28-14.43-14.65-24.45a54.69,54.69,0,0,0-27.91-22.05,75.08,75.08,0,0,0,10.43-11.05l.27,8.72,7.72-15.22c.49-1,12.07-24.14,8.62-48.24-1.79-12.47-8.81-36.47-20.47-62-10-21.89-27-52.76-51.46-75.49-23.88-22.23-46.33-26.89-61-26.9Z"/></g></svg>