<svg xmlns="http://www.w3.org/2000/svg" viewBox="0 0 874.08 365.9"><defs><style>.cls-1{fill:#4dbd8f;}.cls-2{fill:#fff;}.cls-3{fill:#ffca1c;}</style></defs><title>logo_header</title><g id="Layer_3" data-name="Layer 3"><path class="cls-1" d="M332.23,293.87a51.19,51.19,0,0,1-34.94-13.8l-.18-.17a53.92,53.92,0,0,1-16.57-36.09,55.62,55.62,0,0,1,1.24-15.53h0q-.82,0-1.64,0A29.24,29.24,0,0,1,252,206.68a28.59,28.59,0,0,1-3,.33q-.87.05-1.73.05a29,29,0,0,1-17.91-6.18,28.7,28.7,0,0,1-18.71,8.38q-.86.05-1.71.05a29.11,29.11,0,0,1-17.9-6.21,29.46,29.46,0,0,1-18.76,8.42c-.54,0-1,0-1.5,0-.65,0-1.3,0-2-.08a22.09,22.09,0,0,1-3.22-.37,29.76,29.76,0,0,1-8.44-3,28.77,28.77,0,0,1-14.79,5.12q-.85.05-1.7.05a28.58,28.58,0,0,1-8.15-1.19,50.26,50.26,0,0,1-12.9,2.48c-1,.06-2.07.09-3.09.09a51.07,51.07,0,0,1-24.08-6,28.93,28.93,0,0,1-19.13,8.66q-.88.05-1.76.05A29.23,29.23,0,0,1,42.48,190l-4.27-64.66-.32-.21a20.46,20.46,0,0,1,4.48-36.43l.31-.11.09-.33a20.46,20.46,0,0,1,18.54-15q.61,0,1.21,0a20.31,20.31,0,0,1,16.28,8.08l.2.26.32,0,1,0a20.47,20.47,0,0,1,18.07,30,50.44,50.44,0,0,1,15-3.2c1-.06,1.93-.08,2.89-.08a49.41,49.41,0,0,1,10.15,1.06,28.47,28.47,0,0,1,9.71-2.31q.86-.05,1.71-.05a28.78,28.78,0,0,1,13.47,3.35,28.79,28.79,0,0,1,14.76-5.07q.88-.05,1.76-.05a29.41,29.41,0,0,1,6.73.78,47.4,47.4,0,0,1,10.58-1.85c1-.06,2-.09,2.92-.09a48.71,48.71,0,0,1,16.57,2.88,48.91,48.91,0,0,1,19.12-5.07c1-.06,1.92-.08,2.88-.08a47.35,47.35,0,0,1,26.5,8,28.73,28.73,0,0,1,21-10.91q.87-.05,1.74-.05a29.94,29.94,0,0,1,8.48,1.23,52.18,52.18,0,0,1,13.26-2.56c1-.06,2-.09,3-.09a50.7,50.7,0,0,1,17.86,3.25,51.85,51.85,0,0,1,8.63,4.19,28.93,28.93,0,0,1,20.4-10.17q.88-.05,1.76-.05a29.25,29.25,0,0,1,9.08,1.44,47.37,47.37,0,0,1,13.49-2.82l.72,0c.49,0,1,0,1.48,0a28.7,28.7,0,0,1,15.28,4.38A50.9,50.9,0,0,1,412,90.77c1.06-.06,2.12-.09,3.17-.09a51,51,0,0,1,18.48,3.44v0c-.45-7.6,2.41-15.2,8.06-21.39a30.3,30.3,0,0,1,20.53-9.55q.89-.05,1.77-.05a29.12,29.12,0,0,1,19.38,7.35L484,71q.37-.44.75-.85a29.25,29.25,0,0,1,20-9.52q.89-.05,1.78-.05a29.05,29.05,0,0,1,28.5,23.16,28.64,28.64,0,0,1,3.46-.42q.9-.05,1.78-.05a28.83,28.83,0,0,1,17.73,6,27.77,27.77,0,0,1,18.34-8.23q.87-.05,1.73-.05a28.77,28.77,0,0,1,28.47,27.29l2.74,46.47a56,56,0,0,1-1.15,16.6,60.26,60.26,0,0,1,6.27-.71c1-.06,2-.09,2.92-.09a49.52,49.52,0,0,1,25.93,7.31l.4-.46a28.75,28.75,0,0,1,19.94-9.66q.88-.05,1.75-.05a29.43,29.43,0,0,1,6.73.78,47.42,47.42,0,0,1,10.57-1.85c1-.06,1.95-.09,2.92-.09a48.7,48.7,0,0,1,16.56,2.88,48.87,48.87,0,0,1,19.11-5.07c1-.06,1.92-.08,2.87-.08A47.77,47.77,0,0,1,756,176.53a51.38,51.38,0,0,1,34.6-16.21c1.06-.06,2.14-.09,3.2-.09,26.63,0,48.29,19.62,51.49,46.64a40.93,40.93,0,0,1-.09,7.77A27.56,27.56,0,0,1,840.86,227a30.14,30.14,0,0,1,.36,4.07A28,28,0,0,1,833.41,251a53.52,53.52,0,0,1-36.26,16.74h-1.06a55.33,55.33,0,0,1-28.88-8c-4.94,5.88-12.17,9.35-20.59,9.85q-.87.05-1.73.05A29,29,0,0,1,727,263.43a28.7,28.7,0,0,1-18.71,8.38q-.85.05-1.7.05a29.12,29.12,0,0,1-17.9-6.21,29.46,29.46,0,0,1-18.76,8.42c-.54,0-1,0-1.51,0-.65,0-1.3,0-2-.08a22.11,22.11,0,0,1-3.22-.37,29.54,29.54,0,0,1-14.38-7.09,50,50,0,0,1-28.07,10.76c-1,.06-2.07.09-3.09.09a50.09,50.09,0,0,1-18.15-3.38,51.82,51.82,0,0,1-10.2-5.34c-.38.34-.77.69-1.18,1a3,3,0,0,1-.32.3,50.26,50.26,0,0,1-27.69,10.65,2.22,2.22,0,0,1-.81.19q-1.38.06-2.75.06a55.78,55.78,0,0,1-27.71-7.33,53.89,53.89,0,0,1-30.68,11.73h-.22l-1.3,0A54.21,54.21,0,0,1,459.75,271a22.71,22.71,0,0,1-2-2.16l0,.13q-.12.33-.25.66c-.29.76-.59,1.5-.93,2.21A22.61,22.61,0,0,1,454,276c-.69,1-1.33,1.69-1.68,2.08l-1.7-1.36,1.62,1.44c-.45.51-.93,1-1.43,1.47a22.52,22.52,0,0,1-2.6,2.37,24.55,24.55,0,0,1-3.2,2.21,22.13,22.13,0,0,1-5.57,2.46,22.46,22.46,0,0,1-3.11.81,26.6,26.6,0,0,1-4.2.54c-.53,0-1.13.06-1.8.06s-1.62,0-2.41-.11a29.24,29.24,0,0,1-7.53-1.69,24.4,24.4,0,0,1-3.17-1.42,24.09,24.09,0,0,1-5,2.7l-.61.24a22.24,22.24,0,0,1-5.16,1.49,26.91,26.91,0,0,1-3.76.46c-.45,0-1.1.06-1.91.06-.65,0-1.31,0-2-.07a27.85,27.85,0,0,1-7.81-1.66,24.9,24.9,0,0,1-6-3.07c-.51-.34-1-.73-1.55-1.14a22.44,22.44,0,0,1-3.76-3.35,28.9,28.9,0,0,1-21.69,11.86q-.85.05-1.69,0a28.55,28.55,0,0,1-8.15-1.19,50.23,50.23,0,0,1-12.9,2.48C334.3,293.84,333.26,293.87,332.23,293.87Z"/><path class="cls-2" d="M506.57,62.75a26.89,26.89,0,0,1,26.74,23.61,26.39,26.39,0,0,1,5.35-.87q.83,0,1.66,0a26.47,26.47,0,0,1,17.87,6.83l0,0,0,0s.05,0,.08,0h0a.25.25,0,0,1,0-.08,25.81,25.81,0,0,1,18.29-9.06q.81,0,1.6,0a26.44,26.44,0,0,1,26.3,25.25l1.71,29,1,17.46c.39,6.69,0,13.21-2.08,19.32a55.21,55.21,0,0,1,9.49-1.38q1.4-.08,2.79-.08a47.54,47.54,0,0,1,26.41,8c.48-.65,1-1.29,1.54-1.9A26.59,26.59,0,0,1,663.75,170q.82,0,1.63,0a27.17,27.17,0,0,1,6.78.86,45.19,45.19,0,0,1,10.64-1.93q1.4-.08,2.79-.08a46.69,46.69,0,0,1,16.7,3.08,47,47,0,0,1,19.1-5.27q1.38-.08,2.75-.08a45.37,45.37,0,0,1,30.49,11.73c.52.47,1,.95,1.47,1.44a49.16,49.16,0,0,1,34.63-17.17q1.55-.09,3.07-.09c25.42,0,46.25,18.75,49.34,44.73a39.29,39.29,0,0,1-.08,7.17,25,25,0,0,1-4.49,12.14,27.58,27.58,0,0,1,.48,4.64,25.83,25.83,0,0,1-7.19,18.4A51.65,51.65,0,0,1,797,265.56h-.94a53.12,53.12,0,0,1-29.38-8.75c-4.55,6.33-11.84,10.08-20.22,10.57-.54,0-1.07,0-1.61,0a26.9,26.9,0,0,1-18.09-7,26.72,26.72,0,0,1-18.66,9.21q-.79,0-1.58,0A26.86,26.86,0,0,1,689,263.17l-.56-.49a27.26,27.26,0,0,1-18.72,9.23c-.49,0-1,0-1.38,0-.69,0-1.3,0-1.82-.07a20.25,20.25,0,0,1-3-.34,27.45,27.45,0,0,1-14.67-7.87,47.54,47.54,0,0,1-28.31,11.51q-1.49.09-3,.09A47.88,47.88,0,0,1,600.26,272a49.81,49.81,0,0,1-11.18-6.09c-.76.73-1.54,1.45-2.36,2.12-.1.08-.19.19-.29.27a48.15,48.15,0,0,1-27,10.22c-.09,0-.16.15-.25.16q-1.33.06-2.65.06A53.57,53.57,0,0,1,528.6,271,52.07,52.07,0,0,1,498,283.17H496.6a51.94,51.94,0,0,1-35.38-13.82,59.28,59.28,0,0,1-4.23-4.92l-1.34,3.76-.22.6c-.21.55-.49,1.26-.87,2.07a20.47,20.47,0,0,1-2.31,3.86,25.13,25.13,0,0,1-1.59,2l-.06.07q-.64.72-1.35,1.38a20.31,20.31,0,0,1-2.39,2.19,22.52,22.52,0,0,1-3,2,26.53,26.53,0,0,1-8,3,24.82,24.82,0,0,1-3.94.51c-.48,0-1,.05-1.66.05s-1.4,0-2.2-.1a27.08,27.08,0,0,1-6.94-1.55,22.6,22.6,0,0,1-4.11-2,22.13,22.13,0,0,1-5.62,3.27l-.18.07-.41.16a20.26,20.26,0,0,1-4.72,1.37,25.15,25.15,0,0,1-3.54.44c-.42,0-1,.06-1.78.06-.53,0-1.13,0-1.79-.07a25.63,25.63,0,0,1-7.2-1.53,22.88,22.88,0,0,1-5.48-2.82q-.77-.51-1.49-1.1a27.16,27.16,0,0,1-5.29-5.25,26.79,26.79,0,0,1-21.6,13.33q-.79,0-1.57,0a26.41,26.41,0,0,1-8.18-1.3,48,48,0,0,1-13,2.59q-1.49.09-3,.09a48.8,48.8,0,0,1-33.46-13.22l-.17-.16a51.75,51.75,0,0,1-15.9-34.64,53.24,53.24,0,0,1,2-17.93,27.75,27.75,0,0,1-3.06.36q-.76,0-1.51,0a27.05,27.05,0,0,1-26.41-22,26.82,26.82,0,0,1-4.73.71q-.81,0-1.61,0a26.9,26.9,0,0,1-18.09-7,26.72,26.72,0,0,1-18.66,9.2q-.79,0-1.58,0a26.86,26.86,0,0,1-17.51-6.53l-.56-.49a27.25,27.25,0,0,1-18.72,9.23c-.49,0-1,0-1.38,0-.69,0-1.3,0-1.83-.07a20.26,20.26,0,0,1-3-.34,27.64,27.64,0,0,1-9-3.39,26.64,26.64,0,0,1-14.76,5.52q-.79,0-1.57,0a26.42,26.42,0,0,1-8.18-1.3,48,48,0,0,1-13,2.59q-1.49.09-3,.09A48.62,48.62,0,0,1,92.07,206l-.12.13a26.79,26.79,0,0,1-18.71,9.09q-.82,0-1.63,0a27.06,27.06,0,0,1-27-25.33l-4.34-65.75-1.22-.8a18.29,18.29,0,0,1,4-32.56l1.39-.49.39-1.43A18.18,18.18,0,0,1,59,75.75a18.36,18.36,0,0,1,2.42-.3c.36,0,.72,0,1.08,0a18.27,18.27,0,0,1,14.55,7.22L78,83.81l1.46-.07.9,0a18.29,18.29,0,0,1,15,28.72l-.84,1.21L95,115c0,.11.07.22.11.33a48.27,48.27,0,0,1,18.43-4.82q1.38-.08,2.76-.08a47.15,47.15,0,0,1,10.39,1.16,26.39,26.39,0,0,1,9.6-2.42q.8,0,1.58,0a26.55,26.55,0,0,1,13.63,3.76,26.6,26.6,0,0,1,14.73-5.48q.82,0,1.63,0a27.17,27.17,0,0,1,6.78.86,45.22,45.22,0,0,1,10.65-1.93q1.4-.08,2.79-.08a46.72,46.72,0,0,1,16.71,3.08A47,47,0,0,1,223.9,104q1.38-.08,2.75-.08a45.33,45.33,0,0,1,27,8.86,26.76,26.76,0,0,1,20.6-11.75q.81,0,1.61,0a27.88,27.88,0,0,1,8.51,1.34,50.25,50.25,0,0,1,13.36-2.67q1.45-.09,2.9-.09a48.48,48.48,0,0,1,17.1,3.11,49.77,49.77,0,0,1,9.88,5,26.79,26.79,0,0,1,20-10.88q.82,0,1.63,0a27.12,27.12,0,0,1,9.12,1.57,45.26,45.26,0,0,1,13.58-3l.69,0q.7,0,1.39,0a26.51,26.51,0,0,1,15.22,4.77,48.88,48.88,0,0,1,22.88-7.18q1.54-.09,3-.09a48.88,48.88,0,0,1,21,4.71c.12-.11-.15-.2-.16-.3l-.19-3.3a27.29,27.29,0,0,1,7.49-19.8,28.32,28.32,0,0,1,19.06-8.85q.83,0,1.65,0A26.83,26.83,0,0,1,482,72.06a27.14,27.14,0,0,1,2.26,2.27,27,27,0,0,1,20.7-11.53q.83,0,1.65,0m0-4.34h0c-.63,0-1.27,0-1.9.06A31.41,31.41,0,0,0,483.86,68,31.3,31.3,0,0,0,464,60.91c-.63,0-1.27,0-1.9.06a32.49,32.49,0,0,0-22,10.26A32,32,0,0,0,431.49,91a53.15,53.15,0,0,0-16.29-2.54c-1.09,0-2.2,0-3.3.1a53,53,0,0,0-22.53,6.45A30.86,30.86,0,0,0,374,91c-.53,0-1.08,0-1.61,0l-.72,0a49.43,49.43,0,0,0-13.41,2.7,31.44,31.44,0,0,0-9-1.32c-.62,0-1.26,0-1.88.06a31.09,31.09,0,0,0-20.7,9.58,53.74,53.74,0,0,0-7.44-3.46,52.88,52.88,0,0,0-18.62-3.39c-1,0-2.11,0-3.16.09A54.25,54.25,0,0,0,284.3,97.8a32.11,32.11,0,0,0-8.44-1.13c-.62,0-1.25,0-1.87.05A30.87,30.87,0,0,0,252.72,107a49.5,49.5,0,0,0-26.07-7.35c-1,0-2,0-3,.09a51.13,51.13,0,0,0-19.13,4.89,50.91,50.91,0,0,0-16.43-2.7c-1,0-2,0-3,.09a49.55,49.55,0,0,0-10.51,1.78,31.61,31.61,0,0,0-6.66-.71c-.62,0-1.26,0-1.88.06a31,31,0,0,0-14.78,4.73,31,31,0,0,0-13.33-3c-.61,0-1.23,0-1.84.05a30.65,30.65,0,0,0-9.81,2.22,51.55,51.55,0,0,0-9.92-1c-1,0-2,0-3,.09A52.94,52.94,0,0,0,102.13,108,22.66,22.66,0,0,0,80.32,79.37H80a22.45,22.45,0,0,0-17.51-8.3c-.44,0-.89,0-1.34,0A22.63,22.63,0,0,0,40.9,87a22.63,22.63,0,0,0-4.78,39.62l4.2,63.61a31.4,31.4,0,0,0,31.31,29.39c.62,0,1.26,0,1.88-.06a31.11,31.11,0,0,0,19.39-8.18,53.27,53.27,0,0,0,23.69,5.55c1.07,0,2.15,0,3.22-.1a52.45,52.45,0,0,0,12.82-2.37,30.73,30.73,0,0,0,8.11,1.09c.6,0,1.22,0,1.82-.05a30.93,30.93,0,0,0,14.81-4.78,32,32,0,0,0,7.88,2.58,24.67,24.67,0,0,0,3.54.41c.71.05,1.39.08,2.07.08s1.09,0,1.63,0a31.58,31.58,0,0,0,18.79-7.78A31.24,31.24,0,0,0,209,211.49c.61,0,1.22,0,1.83-.05a30.84,30.84,0,0,0,18.76-7.73,31.19,31.19,0,0,0,17.74,5.53c.62,0,1.24,0,1.86-.05l1.28-.1a31.45,31.45,0,0,0,28.64,21.41,58.08,58.08,0,0,0-.76,13.45,56.08,56.08,0,0,0,17.24,37.53l.2.19A53.35,53.35,0,0,0,332.23,296c1.07,0,2.15,0,3.22-.1a52.43,52.43,0,0,0,12.81-2.37,30.73,30.73,0,0,0,8.11,1.09c.61,0,1.22,0,1.82-.05a31,31,0,0,0,21.75-10.77,24.69,24.69,0,0,0,2.27,1.82c.54.43,1.09.83,1.66,1.21a27.21,27.21,0,0,0,6.43,3.31,30,30,0,0,0,8.46,1.79c.67,0,1.36.07,2,.07.88,0,1.58,0,2-.07a29.6,29.6,0,0,0,4.05-.5,24.63,24.63,0,0,0,5.59-1.63l.39-.16.17-.07a26.18,26.18,0,0,0,4.32-2.21q1.11.53,2.27,1a31.35,31.35,0,0,0,8.13,1.81c.83.08,1.69.12,2.55.12.61,0,1.24,0,1.92-.06a29.33,29.33,0,0,0,4.54-.59,30.81,30.81,0,0,0,9.37-3.55,26.85,26.85,0,0,0,3.42-2.36,24.76,24.76,0,0,0,2.77-2.53c.53-.5,1-1,1.52-1.57l.09-.1c.35-.4,1-1.16,1.81-2.24a24.88,24.88,0,0,0,2.74-4.57,56.38,56.38,0,0,0,38.13,14.79l1.35,0h.3A55.87,55.87,0,0,0,529,276.19a57.8,57.8,0,0,0,27.51,6.92c.94,0,1.9,0,2.85-.07a4.46,4.46,0,0,0,1.18-.22,52.43,52.43,0,0,0,28.57-11.08c.14-.11.26-.22.35-.3a53.71,53.71,0,0,0,9.22,4.65,52.26,52.26,0,0,0,18.94,3.52c1.06,0,2.15,0,3.22-.1a52.2,52.2,0,0,0,27.87-10.14,31.75,31.75,0,0,0,14,6.44,24.68,24.68,0,0,0,3.54.41c.71.05,1.38.08,2.07.08s1.09,0,1.64,0a31.58,31.58,0,0,0,18.79-7.78A31.24,31.24,0,0,0,706.54,274c.61,0,1.22,0,1.83-.05a30.84,30.84,0,0,0,18.76-7.73,31.19,31.19,0,0,0,17.74,5.53c.62,0,1.25,0,1.86-.05a31.38,31.38,0,0,0,20.88-9.25,57.56,57.56,0,0,0,28.46,7.44h1.19A55.63,55.63,0,0,0,835,252.5a30.23,30.23,0,0,0,8.42-21.5,32.21,32.21,0,0,0-.26-3.52,30.35,30.35,0,0,0,4.23-12.56,43.56,43.56,0,0,0,.09-8.3c-3.34-28.14-25.9-48.56-53.65-48.56-1.1,0-2.22,0-3.33.1a53.48,53.48,0,0,0-34.61,15.41,49.9,49.9,0,0,0-31.73-11.41c-1,0-2,0-3,.09A51.08,51.08,0,0,0,702,167.12a50.88,50.88,0,0,0-16.42-2.7c-1,0-2,0-3,.09A49.51,49.51,0,0,0,672,166.29a31.59,31.59,0,0,0-6.66-.71c-.63,0-1.26,0-1.88.06a30.89,30.89,0,0,0-20.63,9.51,51.67,51.67,0,0,0-25.5-6.71c-1,0-2,0-3.05.09s-2.26.17-3.4.3a62.82,62.82,0,0,0,.58-14.15l-1-17.46-1.71-29a31.35,31.35,0,0,0-9.5-20.83,30.31,30.31,0,0,0-21.13-8.51c-.62,0-1.24,0-1.86.05a29.84,29.84,0,0,0-18.39,7.58,31,31,0,0,0-17.55-5.4c-.63,0-1.28,0-1.91.06s-1.13.08-1.7.15a31.22,31.22,0,0,0-30.15-22.89Z"/><path class="cls-1" d="M115.51,143.91a14.84,14.84,0,0,0-11.14,5.71,18,18,0,0,0-3.93,12.94A18.48,18.48,0,0,0,105.87,175a15.51,15.51,0,0,0,11.72,4.12,15.92,15.92,0,0,0,11.15-5.46,18.57,18.57,0,0,0,4-12.95,18.1,18.1,0,0,0-5.54-12.38A15.21,15.21,0,0,0,115.51,143.91Z"/><path class="cls-1" d="M313,162.38a18,18,0,0,0,4.07-12.57,19,19,0,0,0-5.53-12.14,16.1,16.1,0,0,0-11.86-4.36A15.57,15.57,0,0,0,288.33,139a17.3,17.3,0,0,0-4.06,12.7c.28,4.8,2.16,9.37,5.52,12a15.24,15.24,0,0,0,12,4.47A15.74,15.74,0,0,0,313,162.38Z"/><path class="cls-1" d="M414.25,124.28c-10.42,1.11-15.08,10-15.83,14l34.8-2C431.76,132.39,425,124.52,414.25,124.28Z"/><path class="cls-1" d="M331.16,223.06A14.84,14.84,0,0,0,320,228.77a18,18,0,0,0-3.92,12.94,18.48,18.48,0,0,0,5.42,12.39,15.51,15.51,0,0,0,11.72,4.12,15.92,15.92,0,0,0,11.15-5.46,18.57,18.57,0,0,0,4-12.95,18.1,18.1,0,0,0-5.54-12.38A15.21,15.21,0,0,0,331.16,223.06Z"/><path class="cls-1" d="M493.82,212.22c-10.42,1.11-15.14,9-15.83,14l34.79-2C511.26,219.34,504.56,212.45,493.82,212.22Z"/><path class="cls-1" d="M616.55,206.5A17.9,17.9,0,0,0,605,211.87a19.47,19.47,0,0,0-3.67,13,19.92,19.92,0,0,0,5.19,12.77,16.67,16.67,0,0,0,12.07,3.86,16.13,16.13,0,0,0,11-5.22,18.93,18.93,0,0,0,4-13.31,18.52,18.52,0,0,0-5.55-12.5A17.39,17.39,0,0,0,616.55,206.5Z"/><polygon class="cls-1" points="372 95.42 372 95.42 372 95.42 372 95.42"/><path class="cls-1" d="M792.84,194.61c-10.42,1.11-15.14,9-15.83,14l34.79-2C810.28,201.73,803.58,194.84,792.84,194.61Z"/><path class="cls-2" d="M75.53,140l2.82,48a6.55,6.55,0,0,1-6.25,7,6.62,6.62,0,0,1-7-6.25l-2.82-48a6.58,6.58,0,0,1,6.24-7.15A6.5,6.5,0,0,1,75.53,140Z"/><path class="cls-2" d="M145.82,159.9l1.42,24.1a6.57,6.57,0,0,1-6.13,6.9,6.71,6.71,0,0,1-6.7-4.91,28,28,0,0,1-16,6.25,28.62,28.62,0,0,1-21.43-7.74,31.53,31.53,0,0,1-9.64-21.15,31.07,31.07,0,0,1,7.09-22.13,28.36,28.36,0,0,1,20.36-10.46,28.06,28.06,0,0,1,16.67,4.45,6.69,6.69,0,0,1,6.07-5.79,6.6,6.6,0,0,1,6.91,6.26Zm-13,.77a18.1,18.1,0,0,0-5.54-12.38,15.21,15.21,0,0,0-11.73-4.37,14.84,14.84,0,0,0-11.14,5.71,18,18,0,0,0-3.93,12.94A18.48,18.48,0,0,0,105.87,175a15.51,15.51,0,0,0,11.72,4.12,15.92,15.92,0,0,0,11.15-5.46A18.57,18.57,0,0,0,132.78,160.66Z"/><path class="cls-2" d="M213.81,150.46l0,.37L215.54,180a6.57,6.57,0,0,1-6.13,6.9,6.76,6.76,0,0,1-7-6.13l-1.72-29.14,0-.37a12.56,12.56,0,0,0-25.06,1.85l1.72,29.14c0,.24-.09.62-.07.87l0,.37c-.11.26-.09.5-.33.76l0,.62a7.19,7.19,0,0,1-5.92,4.3c-.49,0-.87-.07-1.24,0a6.71,6.71,0,0,1-5.66-6.08l-1.72-29.14v-.13l-1.12-19.06a6.52,6.52,0,0,1,6.12-7,6.25,6.25,0,0,1,6.12,3.34,25.94,25.94,0,0,1,12.94-4.46,25.56,25.56,0,0,1,19.8,7.35,25.38,25.38,0,0,1,18.81-9.62,25.73,25.73,0,0,1,27.09,24.32l1.72,29.14a6.57,6.57,0,0,1-6.13,6.9,6.68,6.68,0,0,1-7-6.13L239,149.35a12.61,12.61,0,0,0-13.16-11.93A12.78,12.78,0,0,0,213.81,150.46Z"/><path class="cls-2" d="M273.51,199.63l-2.77-47v-.12l-1.43-24.35a6.57,6.57,0,0,1,6.13-6.9c3.45-.2,6.41,2,7.06,4.64a31.26,31.26,0,0,1,16.42-6c16.35-1,30.58,12.27,31.57,29.11s-11.61,31.28-28,32.24a28.49,28.49,0,0,1-16.77-4.07L287,198.83a7,7,0,0,1-6.62,7A6.76,6.76,0,0,1,273.51,199.63Zm10.75-47.89c.28,4.8,2.16,9.37,5.52,12a15.24,15.24,0,0,0,12,4.47A15.74,15.74,0,0,0,313,162.38a18,18,0,0,0,4.07-12.58,19,19,0,0,0-5.53-12.14,16.1,16.1,0,0,0-11.86-4.36A15.57,15.57,0,0,0,288.33,139,17.3,17.3,0,0,0,284.27,151.74Z"/><path class="cls-2" d="M380.57,121.64a6.57,6.57,0,0,1-6.13,6.9,11.76,11.76,0,0,0-7.24,2.77,18.52,18.52,0,0,0-5.31,6.23,37.84,37.84,0,0,0-4.43,10.62l1.38,23.36a6.71,6.71,0,0,1-6.38,6.92,6.57,6.57,0,0,1-6.9-6.13l-2.85-48.44a6.47,6.47,0,0,1,6.14-6.78,6.6,6.6,0,0,1,7.14,6l.05.86a16.39,16.39,0,0,1,2.44-2.61,27,27,0,0,1,15.21-5.71A6.39,6.39,0,0,1,380.57,121.64Z"/><path class="cls-2" d="M385.41,145.66c-.86-16.73,11.34-31.52,28.19-32.51,16-.94,29.35,10.24,31.31,26.78l0,.62a3.36,3.36,0,0,1-.06,1.11c-.19,3-2.66,5.09-6.1,5.29l-39.1,2.3a16.14,16.14,0,0,0,4.66,7.87c2.76,2.8,7.81,4.73,12.13,4.84s9.67-1.31,12.61-3.83c2.42-2.86,7.49-2.79,9.2-.92,1.7,1.63,3.15,5.25.47,8-5.7,5.88-12.8,8.9-21.53,9.41C400.37,175.5,386.52,162.38,385.41,145.66Zm13-6.82,34.8-2c-1.52-4.85-8.22-11.73-19-12C403.86,125.94,399.14,133.75,398.46,138.84Z"/><path class="cls-2" d="M482.14,115.9a6.94,6.94,0,0,1-6.49,7.17l-3.08.18,2,34.3a6.78,6.78,0,0,1,7.17,6.49,6.68,6.68,0,0,1-6.36,7.16A13.72,13.72,0,0,1,461,158.36l-2-34.3-3.57.21a6.75,6.75,0,0,1-7.16-6.36,6.68,6.68,0,0,1,6.36-7.16l3.57-.21-1-17.83a6.78,6.78,0,0,1,6.49-7.17,6.68,6.68,0,0,1,7.16,6.36l1,17.83,3.08-.18A6.86,6.86,0,0,1,482.14,115.9Z"/><path class="cls-2" d="M524.69,113.4a6.94,6.94,0,0,1-6.49,7.17l-3.08.18,2,34.3a6.78,6.78,0,0,1,7.17,6.49,6.68,6.68,0,0,1-6.36,7.16,13.72,13.72,0,0,1-14.45-12.84l-2-34.3-3.57.21a6.75,6.75,0,0,1-7.16-6.36,6.68,6.68,0,0,1,6.36-7.16l3.57-.21-1-17.83A6.78,6.78,0,0,1,506.12,83a6.68,6.68,0,0,1,7.16,6.36l1,17.83,3.08-.18A6.86,6.86,0,0,1,524.69,113.4Z"/><path class="cls-2" d="M585.28,109.58l1.71,29,1,17.46a29.1,29.1,0,0,1-40.5,28.79c-3.53-1.28-5-5-3.71-8.54a6.77,6.77,0,0,1,8.57-3.22,16.49,16.49,0,0,0,7.23,1.3,16.28,16.28,0,0,0,14.71-12.09,23.93,23.93,0,0,1-11.51,3.64,25.91,25.91,0,0,1-27.22-24.31l-1.71-29a6.55,6.55,0,0,1,6-6.89,6.34,6.34,0,0,1,6.9,6.13l1.71,29a12.75,12.75,0,0,0,25.45-1.5l-1.71-29a6.31,6.31,0,0,1,6-6.89A6.6,6.6,0,0,1,585.28,109.58Z"/><path class="cls-3" d="M82.24,103.36a2.37,2.37,0,0,0-2.06-3.71l-9,.42a1.65,1.65,0,0,1-1.39-.65l-5.43-7.14a2.37,2.37,0,0,0-4.17.81l-2.37,8.66a1.65,1.65,0,0,1-1,1.12l-8.47,3a2.37,2.37,0,0,0-.52,4.21l7.5,4.93a1.65,1.65,0,0,1,.75,1.35l.2,9a2.37,2.37,0,0,0,3.85,1.8l7-5.61a1.65,1.65,0,0,1,1.51-.29l8.59,2.59a2.37,2.37,0,0,0,2.9-3.1l-3.17-8.39a1.65,1.65,0,0,1,.19-1.53Z"/><path class="cls-2" d="M361.47,239l1.42,24.1a6.57,6.57,0,0,1-6.13,6.9,6.71,6.71,0,0,1-6.7-4.91,28,28,0,0,1-16,6.25,28.62,28.62,0,0,1-21.43-7.74,31.53,31.53,0,0,1-9.64-21.15A31.07,31.07,0,0,1,310,220.36a28.36,28.36,0,0,1,20.36-10.46,28.06,28.06,0,0,1,16.67,4.45,6.69,6.69,0,0,1,6.07-5.79,6.6,6.6,0,0,1,6.91,6.26Zm-13,.77a18.1,18.1,0,0,0-5.54-12.38,15.21,15.21,0,0,0-11.73-4.37A14.84,14.84,0,0,0,320,228.77a18,18,0,0,0-3.93,12.94,18.48,18.48,0,0,0,5.42,12.39,15.51,15.51,0,0,0,11.72,4.12,15.92,15.92,0,0,0,11.15-5.46A18.57,18.57,0,0,0,348.43,239.81Z"/><path class="cls-2" d="M454,212.49l-17.48,48.9a7.6,7.6,0,0,1-.43,1,.12.12,0,0,1-.12.13,3.32,3.32,0,0,1-.57.78.38.38,0,0,1-.24.14,3.27,3.27,0,0,1-.7.66c0,.13-.11.13-.11.26a3.24,3.24,0,0,1-1.07.68.12.12,0,0,0-.12.13,3.88,3.88,0,0,0-1,.31H432a3.82,3.82,0,0,1-1.22.19,3.44,3.44,0,0,1-1.12-.06h-.24a1.79,1.79,0,0,0-.88-.2l-.13-.12h-.12a2.93,2.93,0,0,1-1.15-.67v-.13c-.37-.1-.51-.34-.77-.57,0,0-.25,0-.25-.11a3.39,3.39,0,0,1-.66-.7.12.12,0,0,1-.13-.12,7.29,7.29,0,0,1-.55-1l-10.23-20.74-7.48,21.79c-.11.25-.33.63-.56,1v.12l-.69.78a.12.12,0,0,1-.12.13l-.7.78a4.27,4.27,0,0,1-1.06.8h-.25a.12.12,0,0,0-.12.13,1.32,1.32,0,0,0-.72.29h-.25a4.64,4.64,0,0,1-1.22.19,3.82,3.82,0,0,1-1.24,0l-.37,0a1.75,1.75,0,0,0-.75-.21c-.13-.12-.13-.12-.25-.11a2.23,2.23,0,0,1-1.15-.67c-.12,0-.12,0-.13-.12a4.65,4.65,0,0,0-.77-.57l-.25-.11c-.14-.24-.4-.47-.54-.71-.12,0-.12,0-.13-.12a6.85,6.85,0,0,0-.67-.95l-23-46.52a6.37,6.37,0,0,1,3.07-8.69,6.12,6.12,0,0,1,8.33,3.21L400,244l7.4-21a6.58,6.58,0,0,1,5.79-4.29,6.33,6.33,0,0,1,6.26,3.58l9.94,20L442,208.39a6.17,6.17,0,0,1,8-4.17A6.47,6.47,0,0,1,454,212.49Z"/><path class="cls-2" d="M464.92,232.83c-.86-16.73,11.35-31.52,28.19-32.51,16-.94,29.35,10.24,31.31,26.78l0,.62a3.42,3.42,0,0,1-.06,1.11c-.2,3-2.66,5.09-6.11,5.29l-39.1,2.3a16.13,16.13,0,0,0,4.66,7.87c2.76,2.8,7.8,4.73,12.13,4.84s9.67-1.31,12.61-3.83c2.42-2.86,7.48-2.79,9.2-.91,1.7,1.63,3.15,5.25.47,8-5.7,5.88-12.8,8.9-21.53,9.41C479.88,262.67,466,249.54,464.92,232.83ZM478,226l34.79-2c-1.52-4.85-8.22-11.73-19-12C483.38,213.11,478.66,220.91,478,226Z"/><path class="cls-2" d="M534.43,241.93a6.41,6.41,0,0,1,9.16-1.53c3.36,2.52,9.06,5,13.84,4.61a16.45,16.45,0,0,0,8.23-2.83c1.63-1.57,2.05-2.84,2-3.82a1.83,1.83,0,0,0-.44-1.21c-.14-.36-.66-.83-1.68-1.38-1.8-1.13-5.56-2.27-10-2.87h-.12a47.44,47.44,0,0,1-10.89-2.57,20.59,20.59,0,0,1-8.9-6.63,14.94,14.94,0,0,1-2.55-7.62c-.33-5.66,2.58-10.64,6.46-14a26.49,26.49,0,0,1,14.86-5.44c8.48-.5,14.75,3.2,18.84,5.68a6.8,6.8,0,0,1,2.5,9,6.52,6.52,0,0,1-9,2.26c-4.09-2.35-7.64-4.11-11.58-3.88a12.55,12.55,0,0,0-7.25,2.65c-1.53,1.2-1.84,2.33-1.8,2.94a1.33,1.33,0,0,0,.31,1,3.32,3.32,0,0,0,1.42,1.15c1.67,1,4.93,1.93,9.15,2.42l.13.11h.12a44.33,44.33,0,0,1,11.64,2.89,19.13,19.13,0,0,1,9.16,6.74,16,16,0,0,1,2.81,8,17.77,17.77,0,0,1-6.91,14.72,28,28,0,0,1-15.7,5.86c-9.6.44-17.23-3.55-22.38-7.2A6.57,6.57,0,0,1,534.43,241.93Z"/><path class="cls-2" d="M597.7,246.84a30.75,30.75,0,0,1-9.76-21.14,31.77,31.77,0,0,1,7.22-22,28.76,28.76,0,0,1,20.6-10.59,27.23,27.23,0,0,1,21.08,8.14,30.76,30.76,0,0,1,9.87,21c.51,8.6-2.12,16.41-7.33,22.15a27.23,27.23,0,0,1-20,10.55A28.76,28.76,0,0,1,597.7,246.84Zm3.64-21.93a19.92,19.92,0,0,0,5.19,12.77,16.67,16.67,0,0,0,12.07,3.86,16.13,16.13,0,0,0,11-5.22,18.93,18.93,0,0,0,4-13.31,18.52,18.52,0,0,0-5.55-12.5,17.39,17.39,0,0,0-11.59-4A17.9,17.9,0,0,0,605,211.87,19.47,19.47,0,0,0,601.34,224.91Z"/><path class="cls-2" d="M711.32,213l0,.37,1.72,29.14a6.57,6.57,0,0,1-6.13,6.9,6.76,6.76,0,0,1-7-6.13l-1.72-29.14,0-.37a12.56,12.56,0,0,0-25.06,1.85l1.72,29.14c0,.24-.09.62-.07.87l0,.37c-.11.26-.09.5-.33.76l0,.62a7.19,7.19,0,0,1-5.92,4.3c-.49,0-.87-.07-1.24,0a6.71,6.71,0,0,1-5.66-6.08l-1.72-29.14v-.13l-1.12-19.06a6.52,6.52,0,0,1,6.12-7,6.25,6.25,0,0,1,6.12,3.34A25.94,25.94,0,0,1,684,189.08a25.56,25.56,0,0,1,19.8,7.35,25.38,25.38,0,0,1,18.81-9.62,25.73,25.73,0,0,1,27.09,24.32l1.72,29.14a6.57,6.57,0,0,1-6.13,6.9,6.68,6.68,0,0,1-7-6.13l-1.72-29.14A12.61,12.61,0,0,0,723.38,200,12.78,12.78,0,0,0,711.32,213Z"/><path class="cls-2" d="M763.94,215.22c-.86-16.73,11.35-31.52,28.19-32.51,16-.94,29.35,10.24,31.31,26.78l0,.62a3.42,3.42,0,0,1-.06,1.11c-.2,3-2.66,5.09-6.11,5.29l-39.1,2.3a16.13,16.13,0,0,0,4.66,7.87c2.76,2.8,7.8,4.73,12.13,4.84s9.67-1.31,12.61-3.83c2.42-2.86,7.48-2.79,9.2-.91,1.7,1.63,3.15,5.25.47,8-5.7,5.88-12.8,8.9-21.53,9.41C778.9,245.05,765.05,231.93,763.94,215.22Zm13-6.82,34.79-2c-1.52-4.85-8.22-11.73-19-12C782.4,195.5,777.68,203.3,777,208.4Z"/></g></svg>