<svg xmlns="http://www.w3.org/2000/svg" viewBox="0 0 356 668.14"><defs><style>.cls-1{fill:#fff;}.cls-2{fill:#7acaaf;}.cls-3{fill:#5b9f9d;}.cls-4{fill:#f6a6b5;}.cls-5{fill:#382127;}.cls-11,.cls-6{fill:none;stroke-miterlimit:10;}.cls-6{stroke:#382127;stroke-width:3.22px;}.cls-7{fill:#f3f3f3;}.cls-8{fill:#fbc7be;}.cls-9{fill:#f06c4e;}.cls-10{fill:#171717;}.cls-11{stroke:#5b9f9d;stroke-linecap:round;stroke-width:2.42px;}</style></defs><title>awesome_cat</title><g id="Layer_3" data-name="Layer 3"><path class="cls-1" d="M90.22,91.41c7.13,0,47.41,21.48,54.54,25.32,8.74-5.26,19.68-8.32,33.45-8.32q2.7,0,5.55.16c13.37.75,23.88,3.84,32.16,8.7,11.58-4.6,46.09-18,53.82-18a2,2,0,0,1,1.39.34c3,3-5.05,61.9-15.93,76.38A37.74,37.74,0,0,1,244,219.83,62.12,62.12,0,0,1,233.35,240c2.11.89,3.85,1.66,5,2.24,6.27,3.28,9.55,4.78,9.55,4.78l-15.09-6.3a62,62,0,0,1-5.89,6.25c3.08,1.8,5.65,3.37,7.06,4.39,5.74,4.14,8.78,6.1,8.78,6.1l-16.52-9.86A65.7,65.7,0,0,1,210.47,258l1,1.07a2.29,2.29,0,0,1,.3.38l0-.06,3.91,8.27h0l.92,2-2.21-.85-6.2-2.39c1.59,7.33,4.35,18.68,9,35,6,20.85,7.08,47.16,6.92,82.17l.36-.5s-.14,5.83-.49,15.36c-.12,10.38-.3,21.46-.46,33.31,1.92-1.11,3.85-2.15,5.78-3.08,34.12-16.41,74.36-48.21,80.32-62.31,8.7-20.53,6.15-51.92,6.15-51.92s-.11-7.55,7.43-7.67h.09c7.47,0,9.13,14.1,6.82,40.26-1.67,18.85-12.71,43.92-34.62,60.1S242.39,443,225,454.77c-.5.34-1,.69-1.48,1,.15,36.27,1.63,64.51-12.62,84-2.47,11.57-5.22,20.21-8.08,23.35-2.31,2.55-4.62,3.72-6.78,3.72-3.07,0-5.84-2.37-7.88-6.5a12.69,12.69,0,0,1-.9-2.38q-4.16,1.87-9,3.47l-.65.31c1.12,4.79,1.08,7.46-1.32,8.14a26.87,26.87,0,0,1-7.26,1.12,14.36,14.36,0,0,1-7.54-1.94c.15,4.19-2.79,8.73-12.42,8.73H149c-22.83-.1-70.91-16.11-87.89-30.56-22.28-19-26.26-67.18-19.84-97.19,5.3-24.81,15.34-46.2,28.17-61.76a279,279,0,0,1,21.12-40.43c21.58-34.4,40.28-99.66,40.28-99.66h0a57.36,57.36,0,0,1-6.2-6.29l-19,8.61s3.25-1.61,9.4-5.08c1.73-1,5.08-2.52,9-4.22a56.71,56.71,0,0,1-4.74-6.77l-17.59,5.13s3.44-1.13,10-3.69c1.48-.58,4-1.36,7.1-2.23a62.47,62.47,0,0,1-7-19,37.74,37.74,0,0,1-11.31-41.76l-.28-.08c-12.34-4.41-14.51-78.26-10.85-81.21a1.42,1.42,0,0,1,.88-.21M101.7,239.59h0m3.95,10.94h0M90.22,87a5.6,5.6,0,0,0-3.61,1.17c-1.44,1.16-3.62,2.91-3.19,24.63a271.57,271.57,0,0,0,3.28,37.86c2.5,14.79,5.65,21.15,8.62,24.06A42.09,42.09,0,0,0,107.82,217a68.23,68.23,0,0,0,4.72,14c-1,.31-1.76.59-2.39.83-6.38,2.48-9.77,3.6-9.81,3.61a4.36,4.36,0,0,0,2.59,8.33l13.67-4c-1.59.75-2.81,1.36-3.68,1.85-6,3.36-9.16,5-9.2,5a4.36,4.36,0,0,0,3.74,7.88l16-7.28q1.14,1.21,2.36,2.37c-3.71,12.39-20.42,66.31-39,96A284.69,284.69,0,0,0,65.62,386C52.17,402.52,42.26,424.33,37,449.13c-3.47,16.22-3.8,36.54-.88,54.36,2.45,15,8.28,35.26,22.16,47.07,8.35,7.11,24.08,14.93,43.16,21.47,18.38,6.3,36.15,10.08,47.53,10.13h.16c6,0,10.58-1.55,13.53-4.61a11.51,11.51,0,0,0,1.91-2.65,20.75,20.75,0,0,0,4.51.48,31.38,31.38,0,0,0,8.44-1.29c5-1.39,5.46-5.9,5.08-9.52q1.22-.44,2.4-.91c3.74,6.53,8.47,7.55,11.06,7.55,2.43,0,6.15-.89,10-5.15,2-2.24,5.17-7.23,8.92-24.48,13.38-19,13.19-44.69,13-77.12q0-3.15,0-6.38c5-3.36,11.21-7.43,17.78-11.73,16.48-10.8,37-24.24,52.58-35.76,24.31-18,34.79-45.28,36.38-63.23,2.1-23.91.88-36.42-4.1-41.85a9.38,9.38,0,0,0-7.07-3.15h-.15c-8.74.13-11.8,7.3-11.73,12.09q0,.14,0,.29c0,.3,2.36,30.58-5.82,49.86-5.18,12.25-43.63,43.31-77.62,59.8q0-3,.09-5.95.15-10.4.27-20c.34-9.42.48-15.31.48-15.37a4.35,4.35,0,0,0-.35-1.82c.11-34.55-1.1-60.29-7.1-81.17-3.25-11.31-5.55-20.17-7.14-26.75l.75.29a4.36,4.36,0,0,0,5.51-5.94l-.92-2-2.92-6.17a69.8,69.8,0,0,0,9.85-6.7l13.83,8.26a4.36,4.36,0,0,0,4.6-7.41s-3-2-8.59-6c-.65-.47-1.51-1-2.6-1.72l.11-.13L246.17,251a4.36,4.36,0,0,0,3.5-8s-3.28-1.51-9.34-4.68l-.29-.15a66.76,66.76,0,0,0,7.71-15.82,42.16,42.16,0,0,0,14.63-29.6,41.69,41.69,0,0,0-2.3-16.29c6.2-10.22,10.49-30.56,12.57-42.29,1.47-8.3,2.58-16.52,3.12-23.13.91-11.15-.11-13.14-1.54-14.59a6.17,6.17,0,0,0-4.49-1.62c-7.39,0-32.75,9.38-53.5,17.58-8.89-4.77-19.72-7.53-32.24-8.23-2-.11-3.91-.17-5.79-.17-12.84,0-24.1,2.59-33.52,7.7-4.95-2.64-15.13-8-25.27-13C95.78,87,91.89,87,90.22,87h0ZM101.7,244h0Zm3.95,10.94h0Z"/><path class="cls-2" d="M162.26,492.42s33.07-47.39,67.19-63.8,74.36-48.21,80.32-62.31c8.7-20.53,6.15-51.92,6.15-51.92s-.11-7.55,7.43-7.67,9.22,14,6.91,40.26c-1.67,18.85-12.71,43.92-34.62,60.1S242.39,443,225,454.77C196.2,474.14,185,505.87,185,505.87"/><path class="cls-2" d="M145.85,117.31S93,88.68,89.34,91.62s-1.5,76.8,10.85,81.21S145.85,117.31,145.85,117.31Z"/><path class="cls-2" d="M212.11,118.78s55.71-22.55,59-19.22-7.08,76.49-19.85,79.49S212.11,118.78,212.11,118.78Z"/><path class="cls-2" d="M247.09,194c2.26,47-34.64,72.91-72.19,70.81s-70.2-27-63.83-78.42c5.08-41,19.22-80.81,72.68-77.81C237.72,111.58,245.1,152.77,247.09,194Z"/><path class="cls-3" d="M168.72,149.11c-.71,3.43-5.91,1.13-12.64-.25s-12.41-1.33-11.71-4.75c1-4.87,6.72-5.08,13.45-3.7S169.77,144,168.72,149.11Z"/><path class="cls-3" d="M192.48,150.36c.28,3.48,5.73,1.83,12.57,1.27s12.49.18,12.2-3.3c-.4-4.95-6.06-5.85-12.9-5.29S192.05,145.14,192.48,150.36Z"/><path class="cls-4" d="M95.59,111.39s11.44,11.1,20.22,16.35,12.09,9.36,12.09,9.36l-18.69,30.22a80.66,80.66,0,0,1-12.09-27A78.47,78.47,0,0,1,95.59,111.39Z"/><path class="cls-4" d="M263,117.61s-12.95,10.77-22.25,15-11.68,4.82-11.68,4.82l16.33,32.17s7.28-8,12.87-23.42A78.29,78.29,0,0,0,263,117.61Z"/><circle class="cls-5" cx="135.96" cy="185.7" r="37.72" transform="translate(-57.05 311.06) rotate(-86.8)"/><ellipse class="cls-5" cx="220.36" cy="190.43" rx="37.72" ry="37.72" transform="translate(17.91 399.79) rotate(-86.8)"/><path class="cls-2" d="M130.8,248.2s-18.7,65.26-40.28,99.66c-57,90.82-42.66,173.07-.81,189.32s56.45,34.49,87,24.79C231.05,544.7,222.83,503.7,223.54,442c.77-66.32,2.74-109.57-6.21-140.7-9.48-33-11.08-45.75-11.08-45.75"/><path class="cls-3" d="M173.77,563.55S157.51,464.78,166,426.48s33.43-29.58,31.49,3.84c-1.48,25.5-2.27,123.25-2.27,123.25Z"/><path class="cls-2" d="M61.07,547.24c-22.28-19-26.26-67.18-19.84-97.19S61,395,77.81,379.3c20.25-18.92,59.07,34.82,64.58,98.43,4.92,56.65-5.91,74.73-5.91,74.73s19.47,5,23.8,12.41c2.64,4.52,1.94,13-11.34,12.94C126.12,577.7,78.05,561.69,61.07,547.24Z"/><path class="cls-2" d="M169.86,414.59s-4,7.59-3.53,79.82c.31,49.64,17.86,73.27,10,75.48-23.49,6.63-24.95-16.78-30.81-47.63s-6.27-109.39-6.27-109.39"/><path class="cls-2" d="M197.57,420.58s-.15,16-5.66,79c-4,45.26-7.22,53.76-3.76,60.76s9,9,14.65,2.78,10.83-33.58,14.25-62.72c6-51.11,7.55-117.39,7.55-117.39"/><path class="cls-6" d="M166.54,189.88s5.54-4,10.1-4.33,11.84,5.56,11.84,5.56"/><path class="cls-7" d="M106,203.8a86.92,86.92,0,0,1,17.32-26.32c12.32-13,24.44-23.3,24.44-23.3s-18.81-5.95-34,10.53S106,203.8,106,203.8Z"/><path class="cls-7" d="M191.8,208.61a87.08,87.08,0,0,1,17.32-26.32c12.32-13,24.44-23.3,24.44-23.3s-18.8-5.95-34,10.53S191.8,208.61,191.8,208.61Z"/><path class="cls-3" d="M142.63,526.84c.31-9.6,3.21-31.59,2-45.6-3.93-47.29-16.75-69-38.23-88,0,0,23.24,27.7,29.71,59S142.63,526.84,142.63,526.84Z"/><path class="cls-4" d="M172.14,208.16c.38-1.63,2.14-1.64,4.48-1.55s4.05.79,4.28,2.05-3.67,5.44-4.69,5.24S171.75,209.79,172.14,208.16Z"/><polyline class="cls-8" points="206.53 265.69 214.49 268.75 216.7 269.6 211.86 259.38"/><polyline class="cls-9" points="211.51 259.05 175.16 221.77 170.03 227.56 206.53 265.69"/><path class="cls-9" d="M209.1,265.37a2,2,0,0,1-3.23-.35,2.32,2.32,0,0,1,.34-3.23,2.3,2.3,0,0,1,2.89,3.58Z"/><path class="cls-9" d="M211.49,262.3a2.3,2.3,0,1,1,0-3.25A2.3,2.3,0,0,1,211.49,262.3Z"/><polygon class="cls-10" points="214.84 267.41 215.78 267.65 216.7 269.6 214.49 268.75 214.84 267.41"/><path class="cls-11" d="M146,226.68s-27.67,6.66-34.26,9.22-10,3.69-10,3.69"/><path class="cls-11" d="M147.65,231.45s-26.44,10.53-32.6,14-9.4,5.08-9.4,5.08"/><path class="cls-11" d="M205.29,229.23s26.75,9.71,33,13,9.55,4.78,9.55,4.78"/><path class="cls-11" d="M203.1,233.78s25.1,13.41,30.83,17.55,8.78,6.1,8.78,6.1"/></g></svg>