<svg xmlns="http://www.w3.org/2000/svg" viewBox="0 0 93 96.96"><defs><style>.cls-1{fill:#ffca1c;}</style></defs><title>large_star</title><g id="Layer_3" data-name="Layer 3"><path class="cls-1" d="M86.22,49.31A5.21,5.21,0,0,0,86,40l-18-8.3A3.64,3.64,0,0,1,66,29L62.63,9.47a5.22,5.22,0,0,0-9-2.66L40.22,21.31A3.64,3.64,0,0,1,37,22.44L17.46,19.6a5.21,5.21,0,0,0-5.31,7.7l9.64,17.27A3.64,3.64,0,0,1,21.88,48L13.12,65.69a5.22,5.22,0,0,0,5.69,7.43l19.4-3.84a3.64,3.64,0,0,1,3.25,1L55.62,84.06a5.22,5.22,0,0,0,8.82-3.12L66.79,61.3a3.64,3.64,0,0,1,1.92-2.79Z"/></g></svg>