<svg xmlns="http://www.w3.org/2000/svg" viewBox="0 0 63.75 62.96"><defs><style>.cls-1{fill:#ffca1c;}</style></defs><title>med_star</title><g id="Layer_3" data-name="Layer 3"><path class="cls-1" d="M59.25,26.51a3.53,3.53,0,0,0-2.38-5.87l-13.35-1a2.47,2.47,0,0,1-1.95-1.21L34.82,6.88a3.53,3.53,0,0,0-6.32.45L23.45,19.72a2.46,2.46,0,0,1-1.76,1.48L8.62,24a3.53,3.53,0,0,0-1.53,6.14l10.22,8.64A2.46,2.46,0,0,1,18.17,41L16.84,54.28a3.53,3.53,0,0,0,5.37,3.35l11.38-7a2.47,2.47,0,0,1,2.29-.16L48.13,55.8A3.53,3.53,0,0,0,53,51.72l-3.19-13a2.46,2.46,0,0,1,.55-2.23Z"/></g></svg>