<svg xmlns="http://www.w3.org/2000/svg" viewBox="0 0 43.5 45.34"><defs><style>.cls-1{fill:#ffca1c;}</style></defs><title>Small_star</title><g id="Layer_3" data-name="Layer 3"><path class="cls-1" d="M35.78,9.83a2.5,2.5,0,0,0-3.42-2.91l-8.71,3.76A1.75,1.75,0,0,1,22,10.56l-8-5a2.5,2.5,0,0,0-3.82,2.36L11,17.32a1.75,1.75,0,0,1-.62,1.5L3.15,24.92A2.5,2.5,0,0,0,4.2,29.28l9.26,2.08a1.75,1.75,0,0,1,1.24,1.05l3.54,8.81a2.5,2.5,0,0,0,4.48.34l4.84-8.17a1.75,1.75,0,0,1,1.39-.85l9.47-.65a2.5,2.5,0,0,0,1.71-4.15l-6.27-7.12A1.75,1.75,0,0,1,33.47,19Z"/></g></svg>